<svg id="Group_18484" data-name="Group 18484" xmlns="http://www.w3.org/2000/svg" xmlns:xlink="http://www.w3.org/1999/xlink" width="148.228" height="150.493" viewBox="0 0 148.228 150.493">
  <defs>
    <clipPath id="clip-path">
      <rect id="Rectangle_962" data-name="Rectangle 962" width="148.228" height="150.493" fill="none"/>
    </clipPath>
  </defs>
  <g id="Group_18483" data-name="Group 18483" clip-path="url(#clip-path)">
    <path id="Path_12145" data-name="Path 12145" d="M87.344,0h-.185a2.231,2.231,0,0,0-1.184.346H79.807a2.241,2.241,0,0,0-2.241,2.241V2.76a2.231,2.231,0,0,0,.37,1.222V8.544a2.231,2.231,0,0,0-.37,1.222v.173a2.241,2.241,0,0,0,2.241,2.241h2.459a2.241,2.241,0,0,0,2.241-2.241V9.765A2.247,2.247,0,0,0,84.372,9a2.227,2.227,0,0,0,1.106.3h.185A2.242,2.242,0,0,0,87.9,7.06V6.312a2.24,2.24,0,0,0,1.68-2.168v-1.9A2.241,2.241,0,0,0,87.344,0" transform="translate(-48.242)" fill="#fff"/>
    <path id="Path_12146" data-name="Path 12146" d="M123.66.915h-2.323a2.239,2.239,0,0,0-1.872,1.01,2.239,2.239,0,0,0-1.872-1.01h-2.458a2.241,2.241,0,0,0-2.241,2.241v.173a2.233,2.233,0,0,0,.37,1.222V7.839a5.863,5.863,0,0,0,.375,2.154,4,4,0,0,0,1.79,2.028,7.984,7.984,0,0,0,3.974.851c2.476,0,4.171-.62,5.182-1.894a4.927,4.927,0,0,0,.945-3.14V4.551a2.227,2.227,0,0,0,.37-1.222V3.156A2.241,2.241,0,0,0,123.66.915" transform="translate(-70.214 -0.569)" fill="#fff"/>
    <path id="Path_12147" data-name="Path 12147" d="M158.835.915h-2.458a2.241,2.241,0,0,0-2.241,2.241v.173a2.234,2.234,0,0,0,.37,1.222V6.593a2.245,2.245,0,0,0-.589-.3l-.173-.057a2.242,2.242,0,0,0-2.786,1.3l-.741,1.862a2.242,2.242,0,0,0,1.31,2.933l.173.064a2.23,2.23,0,0,0,1.327.062c.6.164,1.035.27,1.352.324a7.364,7.364,0,0,0,1.251.1,6.2,6.2,0,0,0,2.389-.444,4.346,4.346,0,0,0,1.994-1.6,4.886,4.886,0,0,0,.693-2.784V4.551a2.231,2.231,0,0,0,.37-1.222V3.156A2.241,2.241,0,0,0,158.835.915" transform="translate(-93.328 -0.569)" fill="#fff"/>
    <path id="Path_12148" data-name="Path 12148" d="M189.686.915h-2.459a2.241,2.241,0,0,0-2.241,2.241v.173a2.234,2.234,0,0,0,.37,1.222V9.113a2.231,2.231,0,0,0-.37,1.222v.173a2.241,2.241,0,0,0,2.241,2.241h2.459a2.241,2.241,0,0,0,2.241-2.241v-.173a2.221,2.221,0,0,0-.371-1.221V4.55a2.223,2.223,0,0,0,.371-1.221V3.156A2.242,2.242,0,0,0,189.686.915" transform="translate(-115.051 -0.569)" fill="#fff"/>
    <path id="Path_12149" data-name="Path 12149" d="M219.523,6.239a2.241,2.241,0,0,0,1.449-2.095v-1.9A2.241,2.241,0,0,0,218.73,0h-.185a2.226,2.226,0,0,0-1.183.346h-6.218A2.241,2.241,0,0,0,208.9,2.587V2.76a2.231,2.231,0,0,0,.37,1.222V8.544a2.228,2.228,0,0,0-.37,1.221v.173a2.241,2.241,0,0,0,2.241,2.241H217.5a2.227,2.227,0,0,0,1.183.346h.186a2.241,2.241,0,0,0,2.241-2.241v-1.9a2.242,2.242,0,0,0-1.584-2.143" transform="translate(-129.927)" fill="#fff"/>
    <path id="Path_12150" data-name="Path 12150" d="M255.327,1.386a8.206,8.206,0,0,0-3.046-.471H247.9a2.242,2.242,0,0,0-2.242,2.241v.173a2.231,2.231,0,0,0,.371,1.222V9.113a2.231,2.231,0,0,0-.371,1.222v.173a2.241,2.241,0,0,0,2.242,2.241h4.382a9.536,9.536,0,0,0,2.342-.247A5.429,5.429,0,0,0,256.7,11.48a5.685,5.685,0,0,0,2.089-4.648,6.284,6.284,0,0,0-.673-2.925,5.312,5.312,0,0,0-2.79-2.52m-3.1,5.223c.139,0,.246.009.324.017a1.706,1.706,0,0,1,.011.2,1.814,1.814,0,0,1-.011.208c-.078.008-.185.016-.324.018Z" transform="translate(-152.786 -0.569)" fill="#fff"/>
    <path id="Path_12151" data-name="Path 12151" d="M294.037,8.417l-2.445-4.632a2.211,2.211,0,0,0,.052-.455V3.157A2.241,2.241,0,0,0,289.4.916h-2.782a2.241,2.241,0,0,0-2.241,2.241V3.33a2.219,2.219,0,0,0,.064.505l-2.369,4.632a2.237,2.237,0,0,0-1.012,1.868v.173A2.241,2.241,0,0,0,283.3,12.75h2.588a2.241,2.241,0,0,0,2.048-1.333,2.24,2.24,0,0,0,2.048,1.333h2.891a2.242,2.242,0,0,0,2.242-2.241v-.173a2.242,2.242,0,0,0-1.083-1.918" transform="translate(-174.806 -0.57)" fill="#fff"/>
    <path id="Path_12152" data-name="Path 12152" d="M147.8,62.6l-2.452-3.365a38.1,38.1,0,0,0-11.744-9.9c2.469-4,2.922-8.882,3-12.911l.087-4.439a2.241,2.241,0,0,0-3.188-2.075l-4.023,1.877a56.379,56.379,0,0,0-5.713,3.08c-.19-.768-.475-1.905-.9-3.617a2.241,2.241,0,0,0-3.046-1.52l-4.6,1.943a48.9,48.9,0,0,1-18.9,4.2c-7.166-.007-13.211-2.05-17.964-6.072l-.145-.124c-.055-.045-.11-.088-.168-.129L75.4,27.706a2.242,2.242,0,0,0-2.567,0l-1.283.9-1.369.956a2.319,2.319,0,0,0-.193.151l-.139.122c-4.731,4-10.765,6.034-17.933,6.041a48.915,48.915,0,0,1-18.9-4.2l-4.6-1.942a2.242,2.242,0,0,0-3.047,1.522l-.9,3.614a56.335,56.335,0,0,0-5.711-3.079l-4.023-1.877a2.242,2.242,0,0,0-3.188,2.075l.087,4.439c.079,4.029.53,8.914,3,12.912a38.091,38.091,0,0,0-11.744,9.9L.43,62.6a2.241,2.241,0,0,0,1.3,3.5l4.051.958a39.7,39.7,0,0,0,13.8.21c-.213,3.2-.324,6.138-.324,8.632v.065c0,15.621,4.133,31.62,11.34,43.895,1.658,2.827,3.524,5.709,5.561,8.6a9.336,9.336,0,0,0-2.751,1.817,7.3,7.3,0,0,0-1.587,2.27,6.62,6.62,0,0,1-.794-1.231,4.316,4.316,0,0,0-8.2,2.23c.564,6.369,4.72,17.127,9.463,24.493a4.272,4.272,0,0,0,1.324,1.312,20.372,20.372,0,0,0,15.657,2.015,7.349,7.349,0,0,0,4.93-4.227,10.007,10.007,0,0,0,.728-3.612,7.964,7.964,0,0,0-.264-2.034q.809.176,1.606.4c4.183,4.15,8.747,8.356,13.579,12.512l.566.487c-.015-.013-.029-.027-.043-.04.139.126.585.523,2.317,2.063a2.241,2.241,0,0,0,3.023-.04l2.172-2.037.5-.426c4.838-4.159,9.4-8.367,13.587-12.518q.8-.221,1.606-.4a7.922,7.922,0,0,0-.264,2.032,10.013,10.013,0,0,0,.73,3.615,7.347,7.347,0,0,0,4.929,4.226,20.367,20.367,0,0,0,15.659-2.015,4.341,4.341,0,0,0,1.323-1.311c4.744-7.369,8.9-18.127,9.463-24.493a4.316,4.316,0,0,0-8.2-2.23,6.681,6.681,0,0,1-.793,1.23,7.3,7.3,0,0,0-1.588-2.27,9.361,9.361,0,0,0-2.751-1.816c2.037-2.89,3.9-5.773,5.562-8.6,7.206-12.275,11.339-28.276,11.339-43.9V75.9c0-2.494-.112-5.435-.324-8.629a39.684,39.684,0,0,0,13.794-.211L146.5,66.1a2.241,2.241,0,0,0,1.3-3.5" transform="translate(0 -16.981)" fill="#fff"/>
    <path id="Path_12153" data-name="Path 12153" d="M85.582,10.4v2.655a.36.36,0,0,0,.084.256.59.59,0,0,0,.287.14v.173H83.494v-.173a.628.628,0,0,0,.29-.143.357.357,0,0,0,.081-.253V6.845a.357.357,0,0,0-.081-.257.656.656,0,0,0-.29-.14V6.275h6.938A.409.409,0,0,0,90.7,6.2a.527.527,0,0,0,.15-.272h.185v1.9h-.185a.527.527,0,0,0-.149-.273.415.415,0,0,0-.264-.073H85.582V9.24h3.165a.408.408,0,0,0,.269-.077.555.555,0,0,0,.149-.27h.185v1.853h-.185a.573.573,0,0,0-.149-.267.4.4,0,0,0-.269-.079Z" transform="translate(-51.929 -3.688)" fill="#1a1311"/>
    <path id="Path_12154" data-name="Path 12154" d="M126.976,7.414v4.112a2.777,2.777,0,0,1-.461,1.747q-.83,1.046-3.426,1.045a5.929,5.929,0,0,1-2.873-.563,1.751,1.751,0,0,1-.806-.9,3.639,3.639,0,0,1-.219-1.333V7.414a.357.357,0,0,0-.081-.256.662.662,0,0,0-.29-.141V6.844h2.458v.173a.611.611,0,0,0-.288.138.361.361,0,0,0-.083.259v3.66a4.322,4.322,0,0,0,.074.941,1.038,1.038,0,0,0,.282.506,3.512,3.512,0,0,0,3.778,0,1.048,1.048,0,0,0,.276-.506,4.315,4.315,0,0,0,.075-.941V7.413a.356.356,0,0,0-.081-.256.658.658,0,0,0-.29-.141V6.844h2.323v.173a.656.656,0,0,0-.289.141.354.354,0,0,0-.081.256" transform="translate(-73.9 -4.257)" fill="#1a1311"/>
    <path id="Path_12155" data-name="Path 12155" d="M155.985,13.909l.742-1.862.172.057c0,.042-.006.079-.006.109a.517.517,0,0,0,.293.408,2.96,2.96,0,0,0,.828.319,4.12,4.12,0,0,0,1,.13,1.6,1.6,0,0,0,1.119-.327.841.841,0,0,0,.241-.4,2.861,2.861,0,0,0,.063-.695V7.413a.356.356,0,0,0-.081-.256.654.654,0,0,0-.29-.14V6.844h2.458v.173a.652.652,0,0,0-.289.14.356.356,0,0,0-.081.256v4.32a2.852,2.852,0,0,1-.316,1.54,2.137,2.137,0,0,1-.989.773,3.971,3.971,0,0,1-1.53.273,5.26,5.26,0,0,1-.868-.063q-.369-.064-1.2-.294a3.356,3.356,0,0,0-.736-.138.508.508,0,0,0-.351.15Z" transform="translate(-97.014 -4.257)" fill="#1a1311"/>
    <path id="Path_12156" data-name="Path 12156" d="M191.286,13.626V7.408a.348.348,0,0,0-.081-.25.656.656,0,0,0-.29-.14V6.844h2.459v.173a.594.594,0,0,0-.29.138.357.357,0,0,0-.081.253v6.218a.364.364,0,0,0,.084.256.591.591,0,0,0,.287.14V14.2h-2.459v-.173a.632.632,0,0,0,.29-.143.358.358,0,0,0,.081-.253" transform="translate(-118.739 -4.257)" fill="#1a1311"/>
    <path id="Path_12157" data-name="Path 12157" d="M216.919,10.4v2.014h5.035a.4.4,0,0,0,.263-.075.534.534,0,0,0,.15-.271h.186v1.9h-.186a.55.55,0,0,0-.15-.268.4.4,0,0,0-.263-.078h-7.123v-.173a.626.626,0,0,0,.29-.143.36.36,0,0,0,.081-.253V6.845a.36.36,0,0,0-.081-.257.654.654,0,0,0-.29-.14V6.275h6.987a.4.4,0,0,0,.264-.076.546.546,0,0,0,.15-.27h.186v1.9h-.186a.545.545,0,0,0-.15-.27.4.4,0,0,0-.264-.076h-4.9V9.228H220.1a.409.409,0,0,0,.264-.075.537.537,0,0,0,.15-.271h.186v1.865h-.186a.56.56,0,0,0-.15-.267.394.394,0,0,0-.264-.079Z" transform="translate(-133.614 -3.688)" fill="#1a1311"/>
    <path id="Path_12158" data-name="Path 12158" d="M253.675,8.055h2.155a4.387,4.387,0,0,1,1.257.147,1.874,1.874,0,0,1,.807.5,2.546,2.546,0,0,1,.6,1.817,2.229,2.229,0,0,1-1.113,2.2,3.52,3.52,0,0,1-1.55.265h-2.155Zm-1.8,5.824a.622.622,0,0,1-.289.143V14.2h4.382a7.438,7.438,0,0,0,1.79-.178,3.177,3.177,0,0,0,1.227-.6,3.5,3.5,0,0,0,1.249-2.9,4.054,4.054,0,0,0-.421-1.893,3.047,3.047,0,0,0-1.635-1.472,6.154,6.154,0,0,0-2.21-.311h-4.382v.173a.65.65,0,0,1,.289.14.357.357,0,0,1,.081.257v6.211a.357.357,0,0,1-.081.253" transform="translate(-156.474 -4.257)" fill="#1a1311"/>
    <path id="Path_12159" data-name="Path 12159" d="M290.345,11.3l1.285-2.6,1.27,2.6Zm3.592,2.044a.866.866,0,0,1,.115.334q0,.277-.377.34V14.2h2.891v-.173a.767.767,0,0,1-.385-.178,1.935,1.935,0,0,1-.333-.494L292.86,7.69a.738.738,0,0,1-.109-.357q0-.224.339-.316V6.844h-2.782v.173q.334.109.334.357a1.047,1.047,0,0,1-.138.431l-2.886,5.643a1.441,1.441,0,0,1-.277.423.749.749,0,0,1-.35.152V14.2h2.588v-.173c-.258-.062-.386-.173-.386-.334a.828.828,0,0,1,.109-.34l.537-1.031h3.556Z" transform="translate(-178.493 -4.257)" fill="#1a1311"/>
    <path id="Path_12160" data-name="Path 12160" d="M17.553,44c.114,5.845,1.074,10.587,4.321,13.9-.172.06-.324.087-.5.152-5.748,2.117-11.331,7.839-13,10.123L5.929,71.543l4.052.958c3.074.727,11.055,1.259,16.451-.729.158-.059.3-.124.454-.184-.019.273-.067.551-.067.823,0,4.308,2.341,8.3,5.823,12.544l2.846,3.472,1.824-4.1c2.777-6.248,4.179-11.968,4.179-16.648a14.185,14.185,0,0,0-2.278-8.318c-.533-7.332-9.355-14.015-17.721-17.918l-4.024-1.876Z" transform="translate(-3.688 -24.607)" fill="#1a1311"/>
    <path id="Path_12161" data-name="Path 12161" d="M312.088,41.441c-8.366,3.9-17.189,10.587-17.721,17.917a14.181,14.181,0,0,0-2.279,8.317c0,4.679,1.4,10.4,4.18,16.648l1.824,4.1,2.845-3.472c3.481-4.249,5.823-8.236,5.823-12.545,0-.27-.049-.549-.067-.822.155.06.3.125.454.183,5.4,1.989,13.377,1.457,16.45.73l4.052-.958L325.2,68.177c-1.665-2.284-7.248-8.006-13-10.123-.174-.065-.326-.092-.5-.152,3.247-3.313,4.207-8.054,4.321-13.9l.087-4.439Z" transform="translate(-181.664 -24.607)" fill="#1a1311"/>
    <path id="Path_12162" data-name="Path 12162" d="M76.168,299.583a4.814,4.814,0,0,0-1.51,3.517,5.478,5.478,0,0,0,.039.643c.044.37.116.79.2,1.241a14.357,14.357,0,0,1-4.707-5,2.074,2.074,0,0,0-3.94,1.072c.527,5.959,4.616,16.49,9.115,23.476a2.063,2.063,0,0,0,.636.631,18.176,18.176,0,0,0,13.759,1.781,5.2,5.2,0,0,0,3.542-2.91,7.715,7.715,0,0,0,.577-2.8,6.382,6.382,0,0,0-1.212-3.635l-.685-1.218a30.987,30.987,0,0,1,8.027,1.66,39.93,39.93,0,0,0,15.182,2.684h.24a39.928,39.928,0,0,0,15.183-2.684,30.976,30.976,0,0,1,8.026-1.66l-.684,1.217a6.379,6.379,0,0,0-1.212,3.634,7.724,7.724,0,0,0,.577,2.8,5.2,5.2,0,0,0,3.54,2.908,18.173,18.173,0,0,0,13.76-1.781,2.072,2.072,0,0,0,.636-.631c4.5-6.988,8.587-17.519,9.114-23.476a2.074,2.074,0,0,0-3.94-1.072,14.341,14.341,0,0,1-4.707,5c.089-.451.162-.873.206-1.242a5.445,5.445,0,0,0,.039-.642,4.817,4.817,0,0,0-1.51-3.519c-3.426-3.351-11.55-2.782-16.087-2.144a73.086,73.086,0,0,0-10.752,2.652c-4.38,1.32-8.517,2.565-12.289,2.582-3.758-.017-7.915-1.265-12.317-2.585a73.661,73.661,0,0,0-10.765-2.649c-4.538-.638-12.663-1.207-16.087,2.144" transform="translate(-41.202 -184.689)" fill="#1a1311"/>
    <path id="Path_12163" data-name="Path 12163" d="M157.256,40.327s-1.215-4.848-1.215-4.848l-4.6,1.943a51.118,51.118,0,0,1-19.776,4.38c-7.712-.008-14.243-2.228-19.411-6.6l-.149-.127-2.635-1.841-1.283.9-1.369.956-.161.141c-5.137,4.348-11.669,6.569-19.385,6.577A51.126,51.126,0,0,1,67.5,37.422l-4.6-1.943-1.211,4.848a188.919,188.919,0,0,0-4.837,39.26v.064c0,15.233,4.019,30.816,11.032,42.76,8.347,14.23,21.4,29.026,38.784,43.975l.57.491,2.3,2.042,2.209-2.071.538-.46c17.391-14.952,30.44-29.748,38.787-43.98,7.011-11.942,11.031-27.528,11.031-42.768v-.057a188.866,188.866,0,0,0-4.837-39.256" transform="translate(-35.355 -20.668)" fill="#1a1311"/>
    <path id="Path_12164" data-name="Path 12164" d="M153.341,126.782c6.758-11.51,10.63-26.558,10.63-41.294v-.056a188.443,188.443,0,0,0-4.749-38.551s-.216-.863-.387-1.547l-1.466.619a54,54,0,0,1-20.912,4.609c-8.421-.008-15.586-2.461-21.295-7.292,0,0-.035-.029-.038-.034l-.863-.6c-.355.248-.824.575-.825.572l-.075.065c-5.706,4.831-12.87,7.284-21.294,7.292a53.978,53.978,0,0,1-20.907-4.609l-1.469-.619L69.3,46.881a188.5,188.5,0,0,0-4.75,38.553c0,.022,0,.042,0,.063,0,14.73,3.874,29.776,10.631,41.286,8.184,13.954,21.026,28.5,38.171,43.241l.556.479.366.295.321-.283.575-.491c17.144-14.74,29.986-29.287,38.17-43.242" transform="translate(-40.148 -26.515)" fill="#fff"/>
    <path id="Path_12165" data-name="Path 12165" d="M118.312,172.468l.441.382.441-.382c16.222-14.083,28.429-28.018,36.283-41.42,8.908-15.219,10.25-31.575,10.257-39.97a180.481,180.481,0,0,0-4.109-35.614l-.179-.744-.716.274a55.463,55.463,0,0,1-19.781,3.943,35.436,35.436,0,0,1-21.787-6.915l-.408-.312-.408.312a35.433,35.433,0,0,1-21.788,6.915A55.445,55.445,0,0,1,76.779,55l-.715-.274-.179.744a180.42,180.42,0,0,0-4.111,35.613h0c.007,8.4,1.348,24.752,10.257,39.966,7.854,13.4,20.061,27.34,36.281,41.421" transform="translate(-44.64 -32.161)" fill="#1a1311"/>
    <path id="Path_12166" data-name="Path 12166" d="M281.155,143.645q1.808-2.713,3.385-5.4c8.748-14.945,10.065-31.032,10.072-39.29v-.014A180.172,180.172,0,0,0,290.7,64.378a63.873,63.873,0,0,1-9.542,2.742Z" transform="translate(-174.864 -40.04)" fill="#85ac16"/>
    <path id="Path_12167" data-name="Path 12167" d="M164.2,162.583q5.582,5.582,12.039,11.214,6.436-5.612,12.006-11.181V61.764a34.6,34.6,0,0,1-12.005-5.65A34.6,34.6,0,0,1,164.2,61.773Z" transform="translate(-102.121 -34.9)" fill="#85ac16"/>
    <path id="Path_12168" data-name="Path 12168" d="M88.754,143.6V67.116a63.922,63.922,0,0,1-9.506-2.734,180.1,180.1,0,0,0-3.917,34.565v.014c.006,8.259,1.324,24.347,10.071,39.287q1.558,2.66,3.351,5.347" transform="translate(-46.853 -40.042)" fill="#85ac16"/>
    <path id="Path_12169" data-name="Path 12169" d="M227.8,171.911a160.316,160.316,0,0,0,20.173-24.11V71.276a50.492,50.492,0,0,1-9.981,1.04A40.647,40.647,0,0,1,227.8,71.059Z" transform="translate(-141.677 -44.195)" fill="#fff"/>
    <path id="Path_12170" data-name="Path 12170" d="M110.836,147.763a160.163,160.163,0,0,0,20.173,24.13V71.083a40.686,40.686,0,0,1-10.157,1.248,50.418,50.418,0,0,1-10.016-1.047Z" transform="translate(-68.934 -44.21)" fill="#fff"/>
    <path id="Path_12171" data-name="Path 12171" d="M182.692,138.293c-.307-.973-1.664-1.228-4.034-.755-.868.172-4.682,1.479-9.58,3.171l-3.951,1.343c-1.211.017-9.814-.594-10.644-.713l-1.163-.453c-4.283-1.692-7.395-2.842-8.654-2.954-3.667-.33-6.2.634-7.646,2.771-3.615.485-3.761,1.311-3.824,1.816a1.73,1.73,0,0,0-.014.212c0,1.146,1.374,1.456,3.824,1.8a20.07,20.07,0,0,0,2.009,2.351,30.339,30.339,0,0,0,2.1,4.542c1.046,1.709,2.812,3.877,7.19,5.512a11.223,11.223,0,0,0,4.9,1.408l-.7,1.149a2.721,2.721,0,0,0-1.911.362s-2.722,3.112-2.722,3.112l2.736-.09.758,0,1.422-.013,1.581.034.443-.434c.481-.579,2.449-3.413,3.4-4.784a11.474,11.474,0,0,0,4.719-3.19,7.574,7.574,0,0,0,2-3.308l.008-.033c1.15,0,2.077.009,2.557.046l2.8.214-1.8-2.156a10.117,10.117,0,0,0-2.018-1.467c.437-.57.786-1.091.974-1.392.819-.464,3.744-1.88,13.652-6.17l.72-.312a1.32,1.32,0,0,0,.908-1.24,1.294,1.294,0,0,0-.053-.374" transform="translate(-82.833 -85.398)" fill="#fff"/>
    <path id="Path_12172" data-name="Path 12172" d="M116.535,183.7a19.743,19.743,0,0,1,1.742-.952l-.691-2.249a7.9,7.9,0,0,1-5.068-1.219c.026-.453.307-.74.763-1.2a4.346,4.346,0,0,0,1.483-2.869,1.972,1.972,0,0,0-.167-.811,1.778,1.778,0,0,0-1.1-.907,2.441,2.441,0,0,0-1.291-1.369,1.814,1.814,0,0,0-.466-.084,1.785,1.785,0,0,0-1.087-.839,2.228,2.228,0,0,0-.138-.57,1.879,1.879,0,0,0-.824-.923c-.186-.818-.374-1.584-1.145-1.927-.005,0-.01,0-.015,0a1.9,1.9,0,0,0-1.51-1.386,1.54,1.54,0,0,0-.188-.008,3.668,3.668,0,0,0,.69-2,2.389,2.389,0,0,0-.029-.373,2.092,2.092,0,0,0-.661-1.184c0-.02,0-.083,0-.083-.051-.965-.1-1.8-.813-2.3l-.006,0a2.273,2.273,0,0,0-.877-1.66,2.168,2.168,0,0,0-.385-.749v-.015c.009-.2.018-.4.018-.585a2.015,2.015,0,0,0-.486-1.455,1.972,1.972,0,0,0-.893-1.782,2.567,2.567,0,0,0,.194-.417,2.232,2.232,0,0,0-.148-1.865c.007-.042.019-.116.019-.116a6.494,6.494,0,0,0,.108-1.037,2.007,2.007,0,0,0-.332-1.168,3.842,3.842,0,0,0,.078-.39,2.109,2.109,0,0,0-.619-1.592,2.245,2.245,0,0,0,.1-.646,2.334,2.334,0,0,0-.252-.984l.011-.071a5.815,5.815,0,0,0,.093-.919,2.022,2.022,0,0,0-.289-1.1c.011-.107.065-.222.065-.325a1.948,1.948,0,0,0-.761-1.656,3.023,3.023,0,0,0,.328-1.3,1.746,1.746,0,0,0-.477-1.255,1.721,1.721,0,0,0-.927-.412,1.606,1.606,0,0,0-1.266-1.135c-1.022-.146-1.831.732-2.314,1.834a1.737,1.737,0,0,0-.725.446,2.414,2.414,0,0,0-.584,1.666,3.731,3.731,0,0,0,.262,1.333,1.671,1.671,0,0,0-.841.216,2.289,2.289,0,0,0-1.046,1.832,1.729,1.729,0,0,0-.413.433,2.6,2.6,0,0,0-.3,1.259,3.493,3.493,0,0,0,.358,1.444,2,2,0,0,0-.259.9c0,.065,0,.129.009.194a2.286,2.286,0,0,0,.515,1.259c-.056.043-.105.084-.145.12a2.656,2.656,0,0,0-.78,1.972c0,.068.036.14.039.209a2.1,2.1,0,0,0-.577,1,2.69,2.69,0,0,0-.077.654,3.594,3.594,0,0,0,.822,2.205,1.8,1.8,0,0,0-.086,1.426,2.336,2.336,0,0,0,.7,1.045c-.039.048-.082.091-.118.143a2.691,2.691,0,0,0-.459,1.552,3.4,3.4,0,0,0,.118.815,2.267,2.267,0,0,0-.459,1.37c0,.012,0,.025,0,.036a3.458,3.458,0,0,0,1.344,2.61,2.4,2.4,0,0,0-.1.465,2.164,2.164,0,0,0,.279,1.066,2.312,2.312,0,0,0,.812.842c-.038.072-.078.142-.109.219a2.712,2.712,0,0,0-.2,1.027,2.986,2.986,0,0,0,.2,1.046,2.271,2.271,0,0,0-.366,1.237,2.481,2.481,0,0,0,.056.522,2.963,2.963,0,0,0,1.607,1.977c0,.012-.007.03-.007.042a1.969,1.969,0,0,0,.268.993A2.378,2.378,0,0,0,98,176.233a2.32,2.32,0,0,0-.312,1.03c0,.038,0,.076,0,.115a2.451,2.451,0,0,0,.622,1.57,1.537,1.537,0,0,0,.107,1.4,2.888,2.888,0,0,0,2.333,1.432,1.986,1.986,0,0,0,.345.574,2.326,2.326,0,0,0,1.628.648c0,.033,0,.065,0,.1a1.972,1.972,0,0,0,.047.437,2.159,2.159,0,0,0,.86,1.264c0,.012-.007.024-.007.036a1.812,1.812,0,0,0,.4,1.136,2.818,2.818,0,0,0,2.747.778,1.845,1.845,0,0,0,.3.293c1.136.817,2.89,0,3.746-.613l1.073-.871a14.609,14.609,0,0,1,2.134-1.585q.536.144,1.087.248l.128.024,1.913,1.519Z" transform="translate(-57.482 -85.702)" fill="#fff"/>
    <path id="Path_12173" data-name="Path 12173" d="M256.274,160.96a2.69,2.69,0,0,0-.458-1.552c-.036-.051-.078-.1-.118-.143a2.333,2.333,0,0,0,.7-1.045,2.215,2.215,0,0,0,.105-.673,2.19,2.19,0,0,0-.192-.753,3.594,3.594,0,0,0,.821-2.205,2.683,2.683,0,0,0-.076-.653,2.1,2.1,0,0,0-.578-1c0-.07.04-.14.04-.209a2.658,2.658,0,0,0-.78-1.972c-.04-.037-.088-.078-.146-.121a2.286,2.286,0,0,0,.516-1.258c.006-.065.009-.129.009-.193a2,2,0,0,0-.26-.9,3.514,3.514,0,0,0,.358-1.444,2.586,2.586,0,0,0-.3-1.258,1.737,1.737,0,0,0-.413-.434,2.291,2.291,0,0,0-1.045-1.833,1.681,1.681,0,0,0-.842-.216,3.72,3.72,0,0,0,.262-1.331,2.415,2.415,0,0,0-.585-1.668,1.738,1.738,0,0,0-.725-.446c-.484-1.1-1.293-1.98-2.314-1.834a1.607,1.607,0,0,0-1.268,1.135,1.722,1.722,0,0,0-.926.412,1.751,1.751,0,0,0-.478,1.256,3.018,3.018,0,0,0,.329,1.3,1.947,1.947,0,0,0-.761,1.656c0,.1.053.219.064.326a2.015,2.015,0,0,0-.289,1.093,5.8,5.8,0,0,0,.093.919s.008.053.011.073a2.327,2.327,0,0,0-.253.984,2.278,2.278,0,0,0,.1.647,2.111,2.111,0,0,0-.619,1.592,3.947,3.947,0,0,0,.078.39,2.01,2.01,0,0,0-.331,1.167,6.478,6.478,0,0,0,.108,1.039s.012.073.017.114a2.244,2.244,0,0,0-.148,1.865,2.535,2.535,0,0,0,.195.417,1.973,1.973,0,0,0-.893,1.782,2.016,2.016,0,0,0-.486,1.454c0,.191.009.386.018.584v.017a2.175,2.175,0,0,0-.385.749,2.274,2.274,0,0,0-.877,1.66l-.006,0c-.718.5-.762,1.335-.814,2.3,0,0,0,.064-.005.083a2.089,2.089,0,0,0-.661,1.183,2.445,2.445,0,0,0-.028.374,3.67,3.67,0,0,0,.689,2,1.62,1.62,0,0,0-.189.008,1.9,1.9,0,0,0-1.51,1.386s-.01,0-.014,0c-.772.343-.96,1.11-1.146,1.927a1.889,1.889,0,0,0-.823.922,2.254,2.254,0,0,0-.137.571,1.782,1.782,0,0,0-1.085.839,1.819,1.819,0,0,0-.468.084,2.443,2.443,0,0,0-1.291,1.369,1.776,1.776,0,0,0-1.1.907,1.964,1.964,0,0,0-.168.81,4.352,4.352,0,0,0,1.485,2.873c.456.458.735.745.761,1.2a7.9,7.9,0,0,1-5.069,1.219l-.69,2.249a19.624,19.624,0,0,1,1.738.95l-.616,2.073,1.925-1.527.127-.023q.551-.1,1.088-.248a14.589,14.589,0,0,1,2.134,1.585l1.067.868c.86.615,2.614,1.432,3.751.616a1.832,1.832,0,0,0,.295-.293,2.817,2.817,0,0,0,2.747-.778,1.811,1.811,0,0,0,.4-1.138c0-.011-.007-.023-.007-.034a2.168,2.168,0,0,0,.86-1.264,2.046,2.046,0,0,0,.047-.436c0-.032,0-.065,0-.1a2.327,2.327,0,0,0,1.629-.648,1.968,1.968,0,0,0,.344-.574,2.887,2.887,0,0,0,2.334-1.432,1.542,1.542,0,0,0,.107-1.4,2.452,2.452,0,0,0,.622-1.571c0-.039,0-.077,0-.116a2.323,2.323,0,0,0-.312-1.029,2.37,2.37,0,0,0,1.272-1.006,1.971,1.971,0,0,0,.269-.993c0-.012-.007-.029-.007-.042a2.966,2.966,0,0,0,1.608-1.977,2.489,2.489,0,0,0,.055-.522,2.268,2.268,0,0,0-.366-1.237,2.976,2.976,0,0,0,.2-1.046,2.713,2.713,0,0,0-.2-1.026c-.031-.077-.072-.147-.11-.22a2.31,2.31,0,0,0,.812-.842,2.165,2.165,0,0,0,.279-1.065,2.318,2.318,0,0,0-.1-.465,3.458,3.458,0,0,0,1.343-2.611v-.036a2.269,2.269,0,0,0-.459-1.37,3.359,3.359,0,0,0,.118-.815" transform="translate(-143.842 -85.702)" fill="#fff"/>
    <path id="Path_12174" data-name="Path 12174" d="M119.734,183.624a9.359,9.359,0,0,1-6.368-1.665,2.636,2.636,0,0,1,1.023-2.758c1.387-1.39,1.576-2.834.181-2.759-.4-1.093-.769-1.606-1.7-1.087-.015-1.408-1.128-1.376-1.465-.054s.3,3.486.729,4.8a10.845,10.845,0,0,1,.322,1.232,18.251,18.251,0,0,1-3.006-2.86,3.058,3.058,0,0,1,.955-2.871c1.225-1.371,1.42-2.973.215-3.081-.32-1.287-.332-2.048-1.141-1.594.019-1.583-1.061-1.934-1.378-.49a12.3,12.3,0,0,0,.084,4.9c.138.618.267,1.352.374,2.008a29.192,29.192,0,0,1-3.016-5.144c-.13-2.345.592-2.946,1.38-3.582,1.411-1.141,1.854-2.8.7-3.251-.1-1.461.006-2.279-.851-2.014.27-1.683-.72-2.351-1.257-.905a14.475,14.475,0,0,0-.71,5.279c.042.9.043,2,.034,2.854a45.525,45.525,0,0,1-1.655-4.857,2.772,2.772,0,0,1,1.44-2.579c1.279-.831,1.79-2.212.862-2.709.035-1.257.194-1.943-.542-1.8.366-1.4-.4-2.063-.97-.894a12.472,12.472,0,0,0-1.044,4.42c-.033.613-.1,1.333-.167,1.972-.466-1.872-.871-3.909-1.2-6.118.351-1.358.905-1.485,1.5-1.614,1.223-.259,1.834-1.414,1.079-2.327.181-1.242.4-1.855-.259-2.046.487-1.232-.106-2.235-.743-1.325a10.693,10.693,0,0,0-1.45,3.954c-.095.553-.226,1.186-.352,1.761q-.275-2.138-.455-4.485c.3-1.536.831-1.641,1.406-1.744,1.085-.2,1.626-1.209.953-2.052.158-1.108.353-1.648-.234-1.841.428-1.086-.1-2-.663-1.2a9.291,9.291,0,0,0-1.274,3.489c-.084.491-.2,1.054-.311,1.564q-.036-.622-.065-1.257a8.909,8.909,0,0,1,.341-2.583,6.419,6.419,0,0,1,1.231-2.521c.764-1.076.621-2.352-.717-1.436.052-2.356-1.285-1.443-1.771.375-.889-.323-1.241.874-.741,2.015a11.5,11.5,0,0,1,.65,1.578,14.117,14.117,0,0,1,.432,2.768q.064,2.074.2,4.037a5.9,5.9,0,0,1-.73-2.514c-.057-.834-.2-3.28-1.118-4.1s-1.468.319-1.294,1.307c-.837-.172-1.005,1.564-.1,2.52a1,1,0,0,0,.287,1.847,7.661,7.661,0,0,1,3.114,2.893q.272,2.934.714,5.6a6.985,6.985,0,0,1-1.094-2.6c-.243-.974-.924-3.853-2.316-4.539-1.421-.7-1.9.853-1.459,1.98-1.155.062-1.017,2.195.389,3.042a1.145,1.145,0,0,0,.762,2.1,5.406,5.406,0,0,1,4.01,1.66,57.2,57.2,0,0,0,1.432,5.881,7.434,7.434,0,0,1-1.492-2.313c-.442-.969-1.707-3.853-3.387-4.235-1.714-.388-1.968,1.391-1.272,2.479-1.276.361-.734,2.585.983,3.123-1.043,1.067-.079,2.31,1.219,2.014a6.132,6.132,0,0,1,4.471.56,37.633,37.633,0,0,0,2.2,5.2,10.158,10.158,0,0,1-2.57-2.631c-.595-.811-1.5-2.553-3.332-2.5a1.557,1.557,0,0,0-1.139,2.724c-1.335.67-.555,2.686,1.328,2.775-1.017,1.288.445,2.008,1.774,1.793a15.072,15.072,0,0,1,5-.292,22.893,22.893,0,0,0,2.587,3.447,3.981,3.981,0,0,1-2.192-.806c-.8-.527-3.131-2.127-4.979-1.538-1.882.6-1.478,2.127-.375,2.607-1.156.948.206,2.384,2.128,1.907-.663,1.361,1.01,1.524,2.288.962,1.042-.458,2.771-1.729,4.361-1.9a15.048,15.048,0,0,0,3.232,2.244,4.282,4.282,0,0,1-1.449-.182c-.908-.25-3.586-1.03-5.36.027-1.807,1.069-1.112,2.322.1,2.445-1,1.167.65,2.065,2.514,1.1-.424,1.395,1.3,1.07,2.5.215a24.172,24.172,0,0,1,3.746-2.779,12.771,12.771,0,0,0,1.455.37,26.433,26.433,0,0,1,2.465-1.386" transform="translate(-59.431 -87.654)" fill="#70256a"/>
    <path id="Path_12175" data-name="Path 12175" d="M255.536,164.126c.7-1.087.442-2.867-1.273-2.479-1.679.381-2.944,3.266-3.386,4.235a7.433,7.433,0,0,1-1.492,2.313,57.2,57.2,0,0,0,1.432-5.88,5.406,5.406,0,0,1,4.01-1.66,1.145,1.145,0,0,0,.762-2.1c1.407-.848,1.544-2.981.389-3.042.439-1.127-.039-2.681-1.46-1.98-1.391.686-2.072,3.565-2.316,4.539a6.99,6.99,0,0,1-1.093,2.6q.44-2.662.713-5.6a7.654,7.654,0,0,1,3.113-2.892,1,1,0,0,0,.288-1.847c.906-.956.739-2.692-.1-2.52.175-.987-.36-2.133-1.294-1.307s-1.061,3.262-1.117,4.1a5.9,5.9,0,0,1-.73,2.514q.14-1.963.2-4.037a14.2,14.2,0,0,1,.431-2.767,11.433,11.433,0,0,1,.65-1.579c.5-1.141.149-2.338-.741-2.015-.486-1.818-1.823-2.731-1.771-.375-1.338-.916-1.482.36-.718,1.436a6.424,6.424,0,0,1,1.231,2.52,8.979,8.979,0,0,1,.34,2.584c-.019.423-.04.843-.065,1.257-.112-.511-.227-1.074-.31-1.565a9.291,9.291,0,0,0-1.274-3.489c-.564-.8-1.09.119-.663,1.2-.587.193-.39.733-.232,1.841-.672.843-.132,1.856.953,2.052.575.1,1.107.208,1.406,1.745q-.18,2.347-.455,4.484c-.126-.575-.257-1.209-.352-1.761a10.686,10.686,0,0,0-1.451-3.954c-.636-.91-1.229.092-.742,1.325-.661.192-.44.8-.259,2.046-.755.913-.143,2.068,1.079,2.327.6.129,1.151.256,1.5,1.613-.33,2.209-.735,4.245-1.2,6.118-.067-.639-.133-1.359-.167-1.972a12.48,12.48,0,0,0-1.044-4.42c-.569-1.169-1.337-.508-.971.894-.735-.141-.576.545-.541,1.8-.928.5-.416,1.878.862,2.709a2.772,2.772,0,0,1,1.439,2.58,45.458,45.458,0,0,1-1.655,4.856c-.009-.856-.009-1.955.034-2.854a14.5,14.5,0,0,0-.71-5.279c-.538-1.445-1.528-.778-1.258.905-.857-.265-.747.553-.851,2.014-1.152.446-.709,2.109.7,3.251.789.636,1.51,1.236,1.38,3.582a29.124,29.124,0,0,1-3.016,5.145c.107-.656.236-1.39.374-2.008a12.308,12.308,0,0,0,.084-4.9c-.317-1.444-1.4-1.094-1.378.49-.809-.454-.821.307-1.142,1.593-1.2.108-1.008,1.71.217,3.081a3.059,3.059,0,0,1,.955,2.871,18.236,18.236,0,0,1-3.007,2.859,10.845,10.845,0,0,1,.322-1.232c.431-1.313,1.064-3.483.729-4.8s-1.45-1.355-1.466.054c-.93-.519-1.3-.006-1.7,1.087-1.395-.076-1.206,1.369.182,2.758a2.638,2.638,0,0,1,1.023,2.758,9.357,9.357,0,0,1-6.368,1.665,26.466,26.466,0,0,1,2.465,1.385,12.673,12.673,0,0,0,1.455-.37,24.126,24.126,0,0,1,3.745,2.779c1.2.856,2.925,1.18,2.5-.215,1.864.96,3.509.064,2.514-1.1,1.211-.124,1.905-1.376.1-2.445-1.775-1.058-4.453-.278-5.361-.028a4.273,4.273,0,0,1-1.449.182,15.087,15.087,0,0,0,3.232-2.245c1.59.174,3.319,1.446,4.361,1.9,1.277.562,2.951.4,2.288-.962,1.922.477,3.284-.959,2.128-1.907,1.1-.48,1.508-2.009-.374-2.607-1.848-.589-4.184,1.011-4.98,1.538a3.972,3.972,0,0,1-2.192.806,22.864,22.864,0,0,0,2.587-3.447,15.06,15.06,0,0,1,5,.292c1.329.215,2.791-.505,1.773-1.793,1.883-.089,2.665-2.105,1.329-2.775a1.557,1.557,0,0,0-1.138-2.724c-1.832-.054-2.738,1.688-3.333,2.5a10.157,10.157,0,0,1-2.568,2.631,37.65,37.65,0,0,0,2.2-5.2,6.13,6.13,0,0,1,4.471-.56c1.3.3,2.262-.947,1.219-2.014,1.716-.537,2.26-2.761.983-3.123" transform="translate(-144.651 -87.654)" fill="#70256a"/>
    <path id="Path_12176" data-name="Path 12176" d="M138.107,217.79a21.9,21.9,0,1,0,21.9-21.9,21.927,21.927,0,0,0-21.9,21.9" transform="translate(-85.895 -121.832)" fill="#fff"/>
    <path id="Path_12177" data-name="Path 12177" d="M141.313,219.785A20.69,20.69,0,1,0,162,199.095a20.714,20.714,0,0,0-20.69,20.69m2.32,0A18.37,18.37,0,1,1,162,238.155a18.391,18.391,0,0,1-18.37-18.37" transform="translate(-87.889 -123.827)" fill="#70256a"/>
    <path id="Path_12178" data-name="Path 12178" d="M182.1,247.467l-2.353-7.242,6.159-4.474,6.159,4.474-2.353,7.242Z" transform="translate(-111.794 -146.625)" fill="#70256a"/>
    <path id="Path_12179" data-name="Path 12179" d="M182.727,207.374a7.8,7.8,0,0,0-2.575,3.158c1.494.182,4.269.548,5.885,1.95,1.707-1.31,5.223-1.859,6.129-1.859a7.659,7.659,0,0,0-2.562-3.231,17.529,17.529,0,0,0-6.876-.019" transform="translate(-112.045 -128.77)" fill="#70256a"/>
    <path id="Path_12180" data-name="Path 12180" d="M149.647,234.7a7.817,7.817,0,0,0,2.139,3.471c.663-1.353,1.92-3.852,3.776-4.917-.677-2.043-.04-5.545.257-6.4a7.67,7.67,0,0,0-3.893,1.356,17.578,17.578,0,0,0-2.278,6.491" transform="translate(-93.073 -141.089)" fill="#70256a"/>
    <path id="Path_12181" data-name="Path 12181" d="M232.283,234.7a7.815,7.815,0,0,1-2.138,3.471c-.663-1.353-1.921-3.852-3.777-4.917.677-2.043.04-5.545-.256-6.4a7.682,7.682,0,0,1,3.894,1.356,17.609,17.609,0,0,1,2.276,6.491" transform="translate(-140.63 -141.089)" fill="#70256a"/>
    <path id="Path_12182" data-name="Path 12182" d="M209.169,282.269a7.8,7.8,0,0,1-3.919-1.118c1.119-1,3.187-2.891,3.71-4.966,2.151.1,5.348-1.461,6.092-1.98a7.674,7.674,0,0,1-.252,4.116,17.578,17.578,0,0,1-5.63,3.949" transform="translate(-127.655 -170.54)" fill="#70256a"/>
    <path id="Path_12183" data-name="Path 12183" d="M166.5,282.269a7.8,7.8,0,0,0,3.92-1.118c-1.122-1-3.188-2.891-3.711-4.966-2.15.1-5.348-1.461-6.091-1.98a7.685,7.685,0,0,0,.252,4.116,17.559,17.559,0,0,0,5.63,3.949" transform="translate(-99.789 -170.54)" fill="#70256a"/>
    <path id="Path_12184" data-name="Path 12184" d="M180.847,140.691c-1.37.272-13.066,4.431-13.556,4.528s-10.711-.618-11.142-.735-7.869-3.223-9.631-3.381-5.345-.26-6.9,2.7c-1.2.136-3.252.545-3.292.859s3.308.767,3.308.767a17.425,17.425,0,0,0,2.345,2.781,31.756,31.756,0,0,0,2.1,4.59c1.021,1.668,2.643,3.558,6.642,5.041a10.96,10.96,0,0,0,6.577,1.266l-2.224,3.662a3.2,3.2,0,0,0-1.772,0,7.42,7.42,0,0,0-.783.916c.341-.014,1.569.008,2.181-.017a10.525,10.525,0,0,1,1.161.025c.485-.583,2.775-3.891,3.552-5.017a10.234,10.234,0,0,0,4.648-3.039,6.409,6.409,0,0,0,1.687-2.78,52.438,52.438,0,0,1-15.511-1.485c3.857.957,16.725.431,19.311.628-.8-.961-8.065-4.775-10.179-5.679a15.891,15.891,0,0,1,7.753,3.208,16.458,16.458,0,0,0,1.431-2.014c1.528-1.016,13.911-6.33,14.753-6.7s-1.1-.394-2.468-.12m-37.8,4.112a.944.944,0,1,1,.866-1.126,1.007,1.007,0,0,1-.866,1.126" transform="translate(-84.79 -87.388)" fill="#70256a"/>
    <path id="Path_12185" data-name="Path 12185" d="M88.724,326.1c-1.806,1.343-2.945.681-3.676-1.084.019.19-2.342-5.769-3.611-9.87-3.494-.748-8.1-4.443-9.7-7.826.476,5.382,4.278,15.524,8.793,22.535,4.753,3,13.19,2.629,14.259-.125a4.384,4.384,0,0,0-.5-4.646l.139.263c-2.02-2.128-3.683-.75-5.7.752" transform="translate(-44.614 -191.136)" fill="#9a6593"/>
    <path id="Path_12186" data-name="Path 12186" d="M272,315.144c-1.269,4.1-3.631,10.061-3.612,9.871-.731,1.764-1.871,2.425-3.676,1.083-2.02-1.5-3.683-2.88-5.7-.752.046-.088.094-.178.141-.267a4.382,4.382,0,0,0-.5,4.65c1.068,2.754,9.506,3.129,14.259.125,4.514-7.011,8.316-17.153,8.792-22.535-1.6,3.382-6.21,7.077-9.7,7.826" transform="translate(-160.599 -191.136)" fill="#9a6593"/>
    <path id="Path_12187" data-name="Path 12187" d="M106.929,347.1c.731,1.765,1.87,2.427,3.676,1.084,2.021-1.5,3.684-2.88,5.7-.752l-.139-.263c-.77-1.455-1.657-3.008-2.44-4.339-4.221.347-7.049,1.9-6.8,4.271" transform="translate(-66.495 -213.221)" fill="#fff"/>
    <path id="Path_12188" data-name="Path 12188" d="M266.023,348.183c1.806,1.342,2.945.681,3.676-1.083.248-2.375-2.579-3.925-6.8-4.272-.781,1.33-1.667,2.882-2.437,4.335l-.141.267c2.02-2.128,3.683-.75,5.7.752" transform="translate(-161.905 -213.221)" fill="#fff"/>
    <path id="Path_12189" data-name="Path 12189" d="M166.248,321.982c-.02.19,2.343-5.769,3.612-9.871a32.757,32.757,0,0,0,1.268-5.2c.474-4.006-6.3-5.258-15.21-4.006-7.99,1.121-16.094,5.223-23.32,5.256-7.226-.034-15.388-4.136-23.379-5.256-8.911-1.253-15.685,0-15.209,4.006a32.876,32.876,0,0,0,1.268,5.2c1.269,4.1,3.63,10.06,3.611,9.869-.247-2.374,2.58-3.924,6.8-4.271a30.691,30.691,0,0,1,12.263,1.786,37.87,37.87,0,0,0,14.5,2.567h.239a37.875,37.875,0,0,0,14.5-2.567,30.688,30.688,0,0,1,12.263-1.786c4.222.346,7.05,1.9,6.8,4.272" transform="translate(-58.455 -188.103)" fill="#70256a"/>
    <path id="Path_12190" data-name="Path 12190" d="M127.258,316.748a1.418,1.418,0,0,0-1.118-.876c-.8-.095-.883.467-.892.538-.055.467.378.708.787.9l.846.409a2.647,2.647,0,0,1,1.1.91,1.935,1.935,0,0,1,.251,1.2,1.868,1.868,0,0,1-1.193,1.619,3.022,3.022,0,0,1-1.378.173,2.548,2.548,0,0,1-2.413-1.638l1.274-.6a1.432,1.432,0,0,0,1.213,1.052c.332.039.947-.033,1.018-.633.058-.493-.214-.633-1.211-1.141s-1.866-1.057-1.712-2.355c.129-1.083,1.057-1.763,2.491-1.594a2.666,2.666,0,0,1,2.175,1.456Z" transform="translate(-76.651 -195.718)" fill="#fff"/>
    <path id="Path_12191" data-name="Path 12191" d="M137.7,322.993l.106-.576.808.149.985-5.36-.808-.15.1-.567,3.149.581-.105.567-.817-.151-.982,5.343.818.151-.109.594Z" transform="translate(-85.642 -196.839)" fill="#fff"/>
    <path id="Path_12192" data-name="Path 12192" d="M150.422,318.715l1.44.3,1.127,3.4c.047.148.1.344.14.491.017.059.06.315.079.366l.047.009.1-.66c.065-.447.076-.5.129-.747l.51-2.406,1.384.292-1.372,6.469-1.234-.259-1.159-3.523a9.23,9.23,0,0,1-.288-1.175l-.047-.009c-.03.187-.166,1.015-.2,1.181l-.643,3.033-1.384-.292Z" transform="translate(-92.702 -198.224)" fill="#fff"/>
    <path id="Path_12193" data-name="Path 12193" d="M168.076,325.065a2.188,2.188,0,0,1,2.912-1.83,2.653,2.653,0,0,1,1.421.737,2.253,2.253,0,0,1,.354,1.92l-1.507-.3c.054-.32.178-1.031-.571-1.183a.931.931,0,0,0-.612.088.913.913,0,0,0-.4.656l-.5,2.466c-.071.354-.208,1.033.625,1.2.619.125.9-.314,1.042-1.013l1.518.307a3.908,3.908,0,0,1-.226.781,1.809,1.809,0,0,1-.954,1.013,2.736,2.736,0,0,1-1.586.13,2.5,2.5,0,0,1-1.663-.934c-.23-.313-.52-.758-.253-2.083Z" transform="translate(-104.224 -200.985)" fill="#fff"/>
    <path id="Path_12194" data-name="Path 12194" d="M183.89,325.55l4.69.452-.115,1.2L185.3,326.9l-.135,1.4,2.179.209-.115,1.2-2.159-.209-.149,1.553,3.367.324-.117,1.229-4.909-.473Z" transform="translate(-113.977 -202.475)" fill="#fff"/>
    <path id="Path_12195" data-name="Path 12195" d="M209.1,324.588a2.44,2.44,0,0,1,1.95-2.021,2.033,2.033,0,0,1,2.621,1.422,2.955,2.955,0,0,1-1,2.555c-.187.225-.552.662-.737.9a.924.924,0,0,0-.29.651l2.821-.6.25,1.164-4.456.951c-.14-1.288-.04-1.825,1.063-3.278.756-.991,1.076-1.41.946-2.018a.839.839,0,0,0-1.04-.7c-.85.183-.846,1.066-.849,1.417Z" transform="translate(-130.049 -200.576)" fill="#fff"/>
    <path id="Path_12196" data-name="Path 12196" d="M224.013,321a2.041,2.041,0,0,1,1.592-1.5,2,2,0,0,1,1.976.632,5.347,5.347,0,0,1,.971,2.262,5.809,5.809,0,0,1,.053,2.454,1.882,1.882,0,0,1-1.473,1.418c-2.288.5-2.834-2.015-3.029-2.914a4.678,4.678,0,0,1-.09-2.353m2.949.966c-.276-1.27-.693-1.521-1.15-1.421-.42.091-.75.375-.454,1.74l.307,1.41c.335,1.543.783,1.631,1.2,1.538.635-.138.619-.845.365-2.008Z" transform="translate(-139.249 -198.68)" fill="#fff"/>
    <path id="Path_12197" data-name="Path 12197" d="M238.052,318.08a2.041,2.041,0,0,1,1.627-1.457,2.009,2.009,0,0,1,1.961.681,5.355,5.355,0,0,1,.915,2.285,5.777,5.777,0,0,1-.007,2.45,1.879,1.879,0,0,1-1.507,1.378c-2.3.438-2.783-2.084-2.956-2.986a4.65,4.65,0,0,1-.033-2.352m2.924,1.039c-.245-1.274-.655-1.535-1.115-1.447-.423.079-.758.355-.5,1.727l.271,1.417c.3,1.548.744,1.646,1.166,1.566.638-.122.639-.828.415-2Z" transform="translate(-147.967 -196.898)" fill="#fff"/>
    <path id="Path_12198" data-name="Path 12198" d="M253.79,321.027a7.224,7.224,0,0,0,1.634-3.14,1.986,1.986,0,0,1-1.127.463,2.127,2.127,0,0,1-1.487-.429,2.193,2.193,0,0,1-.745-1.39,2.087,2.087,0,0,1,1.969-2.517,2.337,2.337,0,0,1,1.914.55,2.821,2.821,0,0,1,.814,1.881,6.607,6.607,0,0,1-.027,1.3,9.474,9.474,0,0,1-1.123,3.061Zm-.285-4.7c.035.295.126,1.065.991.961.664-.081.819-.561.734-1.26-.053-.439-.24-1.107-.989-1.015-.881.105-.775,1-.736,1.315" transform="translate(-156.756 -195.287)" fill="#fff"/>
    <path id="Path_12199" data-name="Path 12199" d="M172.111,93.271a.791.791,0,0,0-.831-.167l-1.74.67a4.924,4.924,0,0,1-1.608.255h-4.554c.032-.6.046-1.431.065-2.694,0,0,.034-2.384.042-2.931h4.8a4.622,4.622,0,0,1,1.538.242l.715.271a.79.79,0,0,0,1.071-.71l.129-3.585a.791.791,0,0,0-.79-.819H160.268a4.652,4.652,0,0,0-3.377,1.2c.007-.245.011-.4.011-.4a.791.791,0,0,0-.791-.791H141.927l-7.98,0a.79.79,0,0,0-.789.749l-.017.337a1.88,1.88,0,0,1-.267,1.061l-1.442,2.08-1.45-2.125c-.017-.024-.13-.229-.178-.32.075-.161.306-.655.306-.655a.791.791,0,0,0-.716-1.126l-8.37,0h-6.788a.812.812,0,0,0-.724.473l-2.049,4.443-1.536-4.386a.791.791,0,0,0-.746-.53h-7.566a.791.791,0,0,0-.7,1.166l.313.58a2.98,2.98,0,0,1,.234,1.477l-.122,8.444a2.906,2.906,0,0,1-.293,1.53l-.441.75a.791.791,0,0,0,.682,1.192H107.4a.791.791,0,0,0,.7-1.166l-.313-.581s-.161-.415-.161-.415a4.107,4.107,0,0,1-.095-1.062c0,.006.011-.351.026-.866l1.295,3.571a.788.788,0,0,0,.742.519h3.419a.79.79,0,0,0,.735-.5l1.421-3.584c0,.133-.01.612-.01.612A2.927,2.927,0,0,1,114.86,97l-.441.747a.791.791,0,0,0,.681,1.192h6.631a.791.791,0,0,0,.7-1.166l-.313-.581a2.792,2.792,0,0,1-.256-1.361c0-.038.122-8.559.122-8.559.011-.722.17-1.355.348-1.366.139-.028.4.28.869.933a64.117,64.117,0,0,0,4.267,6.566c-.007.4-.035,2.062-.035,2.062A2.908,2.908,0,0,1,127.137,97l-.441.75a.791.791,0,0,0,.682,1.192h7.778a.79.79,0,0,0,.7-1.166l-.313-.581-.16-.415a3.837,3.837,0,0,1-.1-.952c0-.036.031-1.951.038-2.343l3.875-5.58c1.164-1.685,1.939-2.076,2.336-2.164a2.712,2.712,0,0,1,.245,1.228c0,.019-.122,8.5-.122,8.5a2.9,2.9,0,0,1-.293,1.53l-.441.75a.791.791,0,0,0,.682,1.192h7.778a.792.792,0,0,0,.678-.385.782.782,0,0,0,.112-.405.794.794,0,0,0-.094-.375l-.313-.581-.16-.415a3.822,3.822,0,0,1-.1-.946c0-.037.02-1.477.033-2.378h3.195a6.062,6.062,0,0,1,1.752.278l.565.165a.783.783,0,0,0,.5-.021c0,.065,0,.128,0,.194,0,.044,0,.087,0,.13a4.618,4.618,0,0,0,1.4,3.593,4.86,4.86,0,0,0,3.375,1.147h9.793a.791.791,0,0,0,.75-.539l1.447-4.307a.792.792,0,0,0-.2-.823m-17.791-4.7a6.232,6.232,0,0,1-1.781.284h-2.925c0-.175,0-.226,0-.45H153.2a6.6,6.6,0,0,1,1.276.121l-.153.045Z" transform="translate(-62.505 -52.12)" fill="#fff"/>
    <path id="Path_12200" data-name="Path 12200" d="M209.9,86.419c.7.227.906,1.45.906,2.185,0,.021-.122,8.507-.122,8.507a3.827,3.827,0,0,1-.429,2.016l-.265.451h7.1l-.155-.288-.248-.638a4.714,4.714,0,0,1-.127-1.189c0-.043.043-3.176.043-3.176a.2.2,0,0,1,.2-.194h3.975a7,7,0,0,1,2.03.318l.315.093c.006-.424.043-3.082.05-3.517l-.532.158a7.193,7.193,0,0,1-2.062.324h-3.724a.2.2,0,0,1-.14-.059.2.2,0,0,1-.057-.141l.022-2.032a.2.2,0,0,1,.2-.2h4.359a7.521,7.521,0,0,1,2.192.315l.427.136c.013-.422.083-2.742.093-3.075l-13.982,0Z" transform="translate(-130.549 -53.747)" fill="#70256a"/>
    <path id="Path_12201" data-name="Path 12201" d="M143.24,86.419H136c0,.074-.008.15-.008.15a3.31,3.31,0,0,1-.222,1.175c-.055.128-.6.949-2.316,3.421a.2.2,0,0,1-.163.085h0a.2.2,0,0,1-.163-.087L131.041,88.1l-.364-.709-.02-.145s.089-.381.089-.383.108-.23.206-.44c-5.812,0-8.06,0-8.06,0h-6.662l-2.822,6.119a.194.194,0,0,1-.188.113.2.2,0,0,1-.176-.135l-2.136-6.1h-7.095l.155.289a3.642,3.642,0,0,1,.353,1.816c0,.047-.123,8.589-.123,8.589a3.828,3.828,0,0,1-.429,2.016l-.265.451h5.43l-.156-.288-.248-.638a4.774,4.774,0,0,1-.127-1.2c0-.043,0-.086,0-.131l.155-5a.2.2,0,0,1,.166-.19.2.2,0,0,1,.217.127l2.652,7.314h3.146c.1-.241,2.965-7.48,2.965-7.48a.2.2,0,0,1,.381.073s-.077,4.94-.077,4.94a3.846,3.846,0,0,1-.429,2.016l-.266.451h5.954l-.157-.288a3.7,3.7,0,0,1-.374-1.831c0-.043.122-8.573.122-8.573.012-.779.279-2.273,1.227-2.363.672.006,1.34.75,1.789,1.38l4.414,6.779a.215.215,0,0,1,.035.113l-.039,2.318a3.848,3.848,0,0,1-.43,2.017l-.265.451h7.1l-.156-.289-.248-.638a4.8,4.8,0,0,1-.126-1.2c0-.04.042-2.6.042-2.6a.2.2,0,0,1,.034-.11l4.012-5.778c1.057-1.528,2.053-2.358,2.987-2.549" transform="translate(-64.375 -53.747)" fill="#70256a"/>
    <path id="Path_12202" data-name="Path 12202" d="M262.085,96.324a5.9,5.9,0,0,1-1.961.32h-4.947l-.432-.055c-.09-.012-.11-.056-.121-.146,0,0-.026-.217-.026-.227s.1-6.542.1-6.543c.011-.46.239-.631.839-.631h4.946a5.556,5.556,0,0,1,1.888.306l.457.174c.016-.441.1-2.77.113-3.1H252.46c-2.387,0-3.617,1.228-3.657,3.651,0,0-.072,5.717-.072,5.754a3.683,3.683,0,0,0,1.074,2.865,3.912,3.912,0,0,0,2.712.891h9.651l1.268-3.774-1.35.521" transform="translate(-154.697 -53.747)" fill="#70256a"/>
    <path id="Path_12203" data-name="Path 12203" d="M43.6,66.506v-.021c.042-.019.042-.033,0-.022,0-.025,0-.051,0-.076,0-6.064-8.176-12.6-16.372-16.419l-.494-.231.011.545c.148,7.57,1.586,12.5,7.92,14.939a26.948,26.948,0,0,0-5.685,1.438c-4.941,1.821-10.171,6.939-11.872,9.276l-.3.413.5.118c2.385.564,10.1,1.178,15.053-.645a25.484,25.484,0,0,0,5.271-2.654,11.607,11.607,0,0,0-1.612,5.6c0,3.628,2.04,7.034,5.269,10.973l.35.427.224-.5c2.237-5.031,3.984-10.914,3.984-15.794,0-2.97-.662-5.558-2.241-7.365" transform="translate(-10.452 -30.934)" fill="#fff"/>
    <path id="Path_12204" data-name="Path 12204" d="M44.974,68.655,44.92,68.6c-2.149.965-5.088,2.207-10.9,4.346-4.475,1.649-10.6,3.637-12.58,4.239,1.986-.867,7.686-3.229,12.324-4.938,5.793-2.134,8.9-3.131,11.116-3.769l0-.062c0-.071,0-.142,0-.214,0-5.638-7.648-11.781-15.471-15.538.217,7.558,1.729,12.1,8.6,14.191l-.074.665a25.1,25.1,0,0,0-6.763,1.6c-4.538,1.673-9.3,6.188-11.214,8.607,2.755.514,9.6.943,14.119-.721a23.709,23.709,0,0,0,6.281-3.31l.491.456a11.755,11.755,0,0,0-2.21,6.462c0,3.28,1.828,6.4,4.77,10.055,2.445-5.645,3.717-10.809,3.717-14.878,0-3.083-.715-5.545-2.164-7.13m-.488-.083c-4.375-3.09-7.64-6.529-13.611-13.584A154.328,154.328,0,0,1,44.485,68.572m-1.461,19.4c-.033-9.242.22-13.977,1.545-19.168a154.324,154.324,0,0,1-1.545,19.168" transform="translate(-12.42 -32.753)" fill="#70256a"/>
    <path id="Path_12205" data-name="Path 12205" d="M298.386,73.871c0,4.88,1.746,10.763,3.982,15.794l.225.5.349-.427c3.229-3.939,5.269-7.346,5.269-10.974a11.6,11.6,0,0,0-1.612-5.6,25.468,25.468,0,0,0,5.271,2.654c4.948,1.824,12.667,1.209,15.052.645l.5-.118-.3-.413c-1.7-2.337-6.932-7.455-11.873-9.276a26.915,26.915,0,0,0-5.685-1.438c6.334-2.441,7.772-7.369,7.92-14.939l.01-.545-.494.231c-8.2,3.823-16.373,10.355-16.373,16.419,0,.026,0,.051,0,.076-.042-.011-.041,0,0,.022v.021c-1.579,1.807-2.241,4.394-2.241,7.365" transform="translate(-185.58 -30.934)" fill="#fff"/>
    <path id="Path_12206" data-name="Path 12206" d="M300.157,75.785c0,4.069,1.273,9.233,3.718,14.878,2.941-3.659,4.77-6.775,4.77-10.054a11.759,11.759,0,0,0-2.21-6.462l.491-.456A23.7,23.7,0,0,0,313.207,77c4.515,1.665,11.364,1.235,14.119.721-1.917-2.419-6.676-6.935-11.214-8.607a25.1,25.1,0,0,0-6.763-1.6l-.074-.665c6.873-2.093,8.386-6.633,8.6-14.191-7.823,3.757-15.47,9.9-15.47,15.538,0,.072,0,.143,0,.214l0,.062c2.217.638,5.324,1.635,11.117,3.769,4.638,1.709,10.337,4.071,12.324,4.937-1.984-.6-8.106-2.59-12.581-4.239-5.809-2.139-8.747-3.382-10.9-4.346l-.054.058c-1.449,1.586-2.164,4.048-2.164,7.13m16.263-20.8c-5.971,7.055-9.236,10.494-13.611,13.584A154.425,154.425,0,0,1,316.42,54.988M302.725,68.8c1.324,5.191,1.577,9.927,1.545,19.168A154.248,154.248,0,0,1,302.725,68.8" transform="translate(-186.682 -32.753)" fill="#70256a"/>
  </g>
</svg>
