<svg id="Group_18470" data-name="Group 18470" xmlns="http://www.w3.org/2000/svg" xmlns:xlink="http://www.w3.org/1999/xlink" width="150.493" height="150.493" viewBox="0 0 150.493 150.493">
  <defs>
    <clipPath id="clip-path">
      <rect id="Rectangle_958" data-name="Rectangle 958" width="150.493" height="150.493" fill="none"/>
    </clipPath>
  </defs>
  <g id="Group_18469" data-name="Group 18469" clip-path="url(#clip-path)">
    <path id="Path_12030" data-name="Path 12030" d="M75.252,0a75.246,75.246,0,1,0,75.24,75.258A75.328,75.328,0,0,0,75.252,0" fill="#002d76"/>
    <path id="Path_12031" data-name="Path 12031" d="M31.507,99.789c.848-3.647-1.7-4.754-4.52-5.645-.7-.217-1.353-.5-2.042-.651-1.437-.325-1.957-.824-1.75-1.714a2.6,2.6,0,0,1,2.714-1.673c1.535,0,2.679.457,2.382,2.3h4.474c.774-3.8-1.851-5.905-5.842-5.905-3.838,0-7.6,2.215-8.367,5.514-.672,2.887,1.1,4.233,3.471,4.972.734.239,1.5.434,2.217.651,1.048.3,2.838.717,2.495,2.193-.333,1.432-1.539,2-3.008,2-1.624,0-3.123-.347-2.668-3.148H16.237c-1.016,5.405,2.959,6.8,6.6,6.8,3.685,0,7.766-1.8,8.67-5.688" transform="translate(-1.794 -9.653)" fill="#fff"/>
    <path id="Path_12032" data-name="Path 12032" d="M47.045,105.135l.888-3.813H38.345l.862-3.7h8.037l.867-3.726H40.074l.79-3.4H49.9l.872-3.747H37.307L33.03,105.135Z" transform="translate(-3.686 -9.68)" fill="#fff"/>
    <path id="Path_12033" data-name="Path 12033" d="M110.594,105.139l9.951-18.365h-4.061l-4.742,9.573c-.545,1.109-1.634,3.387-1.954,4.147-.008-.738-.017-3.017-.042-4.147l-.289-9.573H105.4l1.388,18.365Z" transform="translate(-11.762 -9.683)" fill="#fff"/>
    <path id="Path_12034" data-name="Path 12034" d="M132.766,105.138l.886-3.808h-9.575l.861-3.7h8.028l.866-3.721H125.8l.79-3.393h9.023l.871-3.743H123.039l-4.272,18.364Z" transform="translate(-13.253 -9.683)" fill="#fff"/>
    <path id="Path_12035" data-name="Path 12035" d="M153.065,92.408c.774-3.8-1.851-5.905-5.842-5.905-3.838,0-7.6,2.215-8.367,5.514-.672,2.887,1.1,4.233,3.471,4.972.734.239,1.5.434,2.217.651,1.049.3,2.838.717,2.5,2.193-.333,1.432-1.54,2-3.009,2-1.623,0-3.122-.347-2.667-3.148h-4.825c-1.017,5.405,2.958,6.8,6.6,6.8,3.685,0,7.767-1.8,8.671-5.688.848-3.647-1.7-4.754-4.521-5.645-.695-.217-1.353-.5-2.042-.651-1.437-.325-1.957-.824-1.75-1.714a2.6,2.6,0,0,1,2.713-1.673c1.536,0,2.68.457,2.383,2.3Z" transform="translate(-15.219 -9.653)" fill="#fff"/>
    <path id="Path_12036" data-name="Path 12036" d="M54.3,105.135s1.957-3.308,2.15-3.633h5.661c.009.568.1,3.633.1,3.633h4.565L65.525,86.747h-4.6L49.731,105.135Zm7.455-12.823c.04,1.545.131,4.845.157,5.4H58.632c.453-.776,2.336-4.027,3.125-5.4" transform="translate(-5.55 -9.68)" fill="#fff"/>
    <path id="Path_12037" data-name="Path 12037" d="M74.386,105.136l1.718-3.684c2.083-4.451,2.979-6.389,3.81-8.286-.23,2.449-.434,5.021-.878,11.586l-.027.385h3.978l9.874-18.388h-4.39l-.106.195c-3.236,6.566-4.593,9.375-5.378,11.051.159-1.722.334-4.226.763-10.865l.033-.38H79.422l-.1.212c-2.908,6.317-4.17,9.145-4.929,10.927.117-1.716.283-4.434.557-10.759l.022-.38h-4.5l.027,18.388Z" transform="translate(-7.865 -9.68)" fill="#fff"/>
    <path id="Path_12038" data-name="Path 12038" d="M90.657,105.135s1.948-3.308,2.136-3.633h5.653c.021.568.1,3.633.1,3.633h4.574l-1.24-18.388H97.258l-11.17,18.388Zm7.43-12.823c.055,1.545.155,4.845.165,5.4h-3.27c.431-.776,2.336-4.027,3.1-5.4" transform="translate(-9.607 -9.68)" fill="#fff"/>
    <path id="Path_12039" data-name="Path 12039" d="M27.811,114.077H25.427L24.2,121.312h1.387l.484-2.862h1.084a4.671,4.671,0,0,1,.569,1.3c.168.514.367,1.134.557,1.562H29.9a19.1,19.1,0,0,1-.853-2.217,3.6,3.6,0,0,0-.479-.943,2.47,2.47,0,0,0,1.525-1.9c.3-1.763-.956-2.173-2.279-2.173m.845,2.164a1.158,1.158,0,0,1-1.3.926H26.292l.3-1.79h.933c1,0,1.218.341,1.129.864" transform="translate(-2.701 -12.73)" fill="#fff"/>
    <path id="Path_12040" data-name="Path 12040" d="M36.346,114.077l-.742,4.39c-.18,1.065-.657,1.624-1.678,1.624-1.076,0-1.324-.559-1.143-1.624l.742-4.39H32.058l-.73,4.319c-.026.149-.065.524-.084.681-.12,1.135.364,2.374,2.453,2.374a3.031,3.031,0,0,0,3.239-2.374c.034-.157.13-.532.155-.681l.73-4.319Z" transform="translate(-3.485 -12.73)" fill="#fff"/>
    <path id="Path_12041" data-name="Path 12041" d="M41.867,118.57h1.492l-.17,1a1.94,1.94,0,0,1-1.384.5c-1.506,0-1.876-1.161-1.665-2.408.2-1.171,1.077-2.409,2.257-2.409.924,0,1.247.445,1.229,1.03h1.491c.155-1.58-.9-2.375-2.452-2.375-2.328,0-3.7,2.112-3.978,3.771-.268,1.588.188,3.744,2.763,3.744a3.931,3.931,0,0,0,2.949-1.169l.508-3.011H42.091Z" transform="translate(-4.309 -12.711)" fill="#fff"/>
    <path id="Path_12042" data-name="Path 12042" d="M49.651,114.077H47.044l-1.223,7.235h2.8c1.554,0,2.639-.523,2.889-2a1.458,1.458,0,0,0-.967-1.825,2,2,0,0,0,1.286-1.484c.285-1.685-1.268-1.929-2.177-1.929m.458,5.019c-.128.759-.608.959-1.477.959h-1.2l.313-1.85h1.084c.973,0,1.372.332,1.277.89m-.974-2.113h-1.18l.281-1.658h1.18c.733,0,1.027.331.952.776a1.149,1.149,0,0,1-1.233.881" transform="translate(-5.113 -12.73)" fill="#fff"/>
    <path id="Path_12043" data-name="Path 12043" d="M55.87,116.818l-1.17-2.741H53.017l1.883,4.181-.516,3.054h1.459l.516-3.054,3.3-4.181H57.976Z" transform="translate(-5.916 -12.73)" fill="#fff"/>
    <path id="Path_12044" data-name="Path 12044" d="M64.361,115.421h3.3l.227-1.344H63.161l-1.223,7.235h1.427l.5-2.958H66.7l.227-1.335H64.091Z" transform="translate(-6.912 -12.73)" fill="#fff"/>
    <path id="Path_12045" data-name="Path 12045" d="M72.116,113.9a4.135,4.135,0,0,0-3.948,3.736c-.329,1.947.426,3.8,2.674,3.8s3.621-1.85,3.95-3.8c.365-2.155-.668-3.736-2.676-3.736m1.184,3.692c-.236,1.4-1.063,2.47-2.226,2.47s-1.644-1.073-1.408-2.47a2.5,2.5,0,0,1,2.219-2.33c1.244,0,1.61,1.178,1.415,2.33" transform="translate(-7.599 -12.71)" fill="#fff"/>
    <path id="Path_12046" data-name="Path 12046" d="M80.125,113.9a4.135,4.135,0,0,0-3.948,3.736c-.329,1.947.426,3.8,2.674,3.8s3.621-1.85,3.95-3.8c.365-2.155-.668-3.736-2.676-3.736m1.184,3.692c-.236,1.4-1.063,2.47-2.226,2.47s-1.644-1.073-1.408-2.47a2.5,2.5,0,0,1,2.219-2.33c1.244,0,1.61,1.178,1.415,2.33" transform="translate(-8.493 -12.71)" fill="#fff"/>
    <path id="Path_12047" data-name="Path 12047" d="M90.166,114.077H84.4l-.23,1.361h2.152l-.993,5.874H86.8l.993-5.874h2.144Z" transform="translate(-9.393 -12.73)" fill="#fff"/>
    <path id="Path_12048" data-name="Path 12048" d="M94.863,117.489a2,2,0,0,0,1.286-1.484c.285-1.685-1.268-1.929-2.177-1.929H91.366l-1.223,7.235h2.8c1.554,0,2.639-.523,2.889-2a1.458,1.458,0,0,0-.967-1.825m-.432,1.606c-.128.759-.609.959-1.477.959h-1.2l.313-1.85h1.084c.973,0,1.372.332,1.277.89m-.974-2.113h-1.18l.281-1.658h1.18c.733,0,1.027.331.952.776a1.149,1.149,0,0,1-1.233.881" transform="translate(-10.059 -12.73)" fill="#fff"/>
    <path id="Path_12049" data-name="Path 12049" d="M100.067,113.988,96.288,121.3h1.53l.826-1.633H101l.274,1.633h1.523l-1.307-7.314Zm-.88,4.355.831-1.658c.144-.289.339-.689.478-1.039.03.339.1.793.135,1.039l.262,1.658Z" transform="translate(-10.745 -12.72)" fill="#fff"/>
    <path id="Path_12050" data-name="Path 12050" d="M106.814,114.077h-1.451l-1.223,7.235h4.782l.232-1.37h-3.332Z" transform="translate(-11.621 -12.73)" fill="#fff"/>
    <path id="Path_12051" data-name="Path 12051" d="M112.77,114.077h-1.451l-1.223,7.235h4.782l.232-1.37h-3.332Z" transform="translate(-12.286 -12.73)" fill="#fff"/>
    <path id="Path_12052" data-name="Path 12052" d="M121.691,120.017c-1.148,0-1.628-1.021-1.407-2.33.23-1.361,1.094-2.417,2.226-2.417a1.176,1.176,0,0,1,1.258,1.326h1.5a2.386,2.386,0,0,0-2.558-2.7c-2.112,0-3.587,1.885-3.906,3.779s.4,3.753,2.657,3.753a3.469,3.469,0,0,0,3.5-2.731h-1.515a1.747,1.747,0,0,1-1.753,1.318" transform="translate(-13.25 -12.71)" fill="#fff"/>
    <path id="Path_12053" data-name="Path 12053" d="M128.651,114.077H127.2l-1.223,7.235h4.782l.232-1.37H127.66Z" transform="translate(-14.058 -12.73)" fill="#fff"/>
    <path id="Path_12054" data-name="Path 12054" d="M137.367,114.077l-.742,4.39c-.18,1.065-.657,1.624-1.678,1.624-1.076,0-1.324-.559-1.143-1.624l.742-4.39h-1.467l-.73,4.319c-.026.149-.065.524-.084.681-.12,1.135.364,2.374,2.453,2.374a3.031,3.031,0,0,0,3.239-2.374c.034-.157.13-.532.155-.681l.73-4.319Z" transform="translate(-14.758 -12.73)" fill="#fff"/>
    <path id="Path_12055" data-name="Path 12055" d="M143.135,114.077h-2.607l-1.223,7.235h2.8c1.554,0,2.639-.523,2.889-2a1.458,1.458,0,0,0-.967-1.825,2,2,0,0,0,1.286-1.484c.285-1.685-1.268-1.929-2.177-1.929m.458,5.019c-.128.759-.608.959-1.477.959h-1.2l.313-1.85h1.084c.973,0,1.372.332,1.277.89m-.974-2.113h-1.18l.281-1.658h1.18c.733,0,1.027.331.952.776a1.149,1.149,0,0,1-1.233.881" transform="translate(-15.545 -12.73)" fill="#fff"/>
    <path id="Path_12056" data-name="Path 12056" d="M27.527,70.354H24.383l-4.371,4.191.85-4.191h-2.6L16.075,81.139h2.6l.754-3.715,1.074-.938,1.979,4.653h3.182l-2.95-6.273Z" transform="translate(-1.794 -7.851)" fill="#f8e100"/>
    <path id="Path_12057" data-name="Path 12057" d="M33.779,70.238,27.4,81.126h2.82l1.3-2.25h3.612l.4,2.25h2.793L36.364,70.238Zm-1.222,6.4,1.059-1.89c.26-.45.633-1.132.882-1.658.049.526.131,1.272.2,1.658L35,76.64Z" transform="translate(-3.057 -7.838)" fill="#f8e100"/>
    <path id="Path_12058" data-name="Path 12058" d="M49.828,70.354l-2.994,6.131c-.184.373-.522,1.209-.744,1.645-.032-.436-.064-1.233-.1-1.645l-.518-6.131H42.3L40.109,81.138H42.39l1.182-6.3c.036-.179.174-1.157.287-1.889l0-.013c.01-.051.039-.077.063-.077s.068.027.067.091c.015.758-.021,2,0,2.21l.378,5.63h2.342l2.732-5.733c.065-.141.526-1.4.78-2.057a.12.12,0,0,1,.087-.077c.036,0,.055.027.048.064-.237.991-.406,1.646-.441,1.813L48.52,81.138h2.294L53,70.354Z" transform="translate(-4.476 -7.851)" fill="#f8e100"/>
    <path id="Path_12059" data-name="Path 12059" d="M59.088,70.238,52.707,81.126h2.82l1.3-2.25h3.611l.4,2.25h2.794L61.673,70.238Zm-1.222,6.4,1.059-1.89c.26-.45.632-1.132.882-1.658.049.526.131,1.272.2,1.658l.307,1.89Z" transform="translate(-5.882 -7.838)" fill="#f8e100"/>
    <path id="Path_12060" data-name="Path 12060" d="M67.824,70.354,65.636,81.139h2.7l2.188-10.784Z" transform="translate(-7.324 -7.851)" fill="#f8e100"/>
    <path id="Path_12061" data-name="Path 12061" d="M76.768,74.618c-.416-.129-.81-.295-1.221-.386-.856-.193-1.174-.488-1.067-1.015a1.488,1.488,0,0,1,1.578-.99c.909,0,1.6.27,1.452,1.363h2.651c.391-2.249-1.2-3.5-3.566-3.5-2.273,0-4.462,1.312-4.859,3.266-.347,1.709.725,2.506,2.144,2.943.441.141.9.257,1.325.386.625.18,1.694.424,1.516,1.3a1.559,1.559,0,0,1-1.746,1.182c-.963,0-1.856-.205-1.636-1.863H70.48c-.506,3.2,1.874,4.023,4.031,4.023,2.183,0,4.568-1.066,5.035-3.368.439-2.16-1.092-2.814-2.778-3.342" transform="translate(-7.857 -7.822)" fill="#f8e100"/>
    <path id="Path_12062" data-name="Path 12062" d="M89.793,70.354l-.826,4.074H84.843l.827-4.074H83.035L80.847,81.139h2.634l.913-4.5h4.123l-.912,4.5h2.634l2.189-10.784Z" transform="translate(-9.022 -7.851)" fill="#f8e100"/>
    <path id="Path_12063" data-name="Path 12063" d="M92.512,81.139h2.7L97.4,70.354H94.7Z" transform="translate(-10.324 -7.851)" fill="#f8e100"/>
    <path id="Path_12064" data-name="Path 12064" d="M75.8,4.662a71.132,71.132,0,1,0,71.126,71.144A71.22,71.22,0,0,0,75.8,4.662m0,138.146A66.944,66.944,0,0,1,9.92,63.554c15.014-12.7,35.45-15.871,54.742-11.981C87.3,56.6,110.212,67.548,136.929,66.631c-.45.016-8.2-.554-11.388-1.006-16.027-2.087-31.506-7.888-42.2-14.394C63.455,39.13,66.827,20.9,79.048,25.492,75.871,16,61.086,15.552,47.268,21.3,34.9,26.446,23.223,36.463,16.39,44.833A67,67,0,1,1,75.8,142.808" transform="translate(-0.52 -0.52)" fill="#f8e100"/>
    <path id="Path_12065" data-name="Path 12065" d="M98.07,47.984c-2.5-5.1-1.27-7.217.412-8.26,2.126-1.318,4.765-.132,4.765-.132-3.439-8.226-14.151-5.565-19.211.391,2.169,8.346,13.371,16.823,27.3,21.77a109.546,109.546,0,0,0,26.873,6.333c-8.04-1.534-17.829-3.977-25.594-7.848-7.573-3.776-12.2-7.478-14.541-12.254" transform="translate(-9.378 -3.84)" fill="#f8e100"/>
    <path id="Path_12066" data-name="Path 12066" d="M132.5,66.471s-13.421-4.493-17.694-9.916c-2.524-3.2-1.576-4.911-.841-5.582,1.246-1.136,3.082-.179,3.082-.179-1.549-3.034-5.831-6.117-12.074-.412C107.958,57,118.748,62.744,132.5,66.471" transform="translate(-11.714 -5.266)" fill="#f8e100"/>
  </g>
</svg>
