<svg id="Group_18454" data-name="Group 18454" xmlns="http://www.w3.org/2000/svg" xmlns:xlink="http://www.w3.org/1999/xlink" width="113.781" height="151.928" viewBox="0 0 113.781 151.928">
  <defs>
    <clipPath id="clip-path">
      <rect id="Rectangle_940" data-name="Rectangle 940" width="113.781" height="151.928" fill="none"/>
    </clipPath>
  </defs>
  <g id="Group_18454-2" data-name="Group 18454" clip-path="url(#clip-path)">
    <path id="Path_12012" data-name="Path 12012" d="M56.849,151.928A57,57,0,0,0,113.78,95V26.3A4.528,4.528,0,0,0,111,22.134L58.629.343A4.583,4.583,0,0,0,56.894,0h-.014a4.6,4.6,0,0,0-1.734.343L2.783,22.134A4.529,4.529,0,0,0,0,26.3V95a56.994,56.994,0,0,0,56.926,56.926Z" transform="translate(0 0)" fill="#fff"/>
    <path id="Path_12013" data-name="Path 12013" d="M62.6,13.084l49.865,20.759v67.024a49.91,49.91,0,0,1-49.907,49.9h.076a49.9,49.9,0,0,1-49.9-49.9V33.843l49.86-20.759Zm-.042,130.747a43.01,43.01,0,0,0,42.967-42.963v-62.4L62.592,20.6h0L19.657,38.465v62.4A43.014,43.014,0,0,0,62.63,143.831Z" transform="translate(-5.704 -5.865)" fill="#1a1311"/>
    <path id="Path_12014" data-name="Path 12014" d="M103.109,250.047h0Z" transform="translate(-46.184 -112.081)" fill="#c1001b"/>
    <path id="Path_12015" data-name="Path 12015" d="M83.955,48.8A57.873,57.873,0,0,0,60.41,53.787l-.18.331.311.408c6.318,8.428,12.575,28.516,12.6,52.419.024,20.138-4.364,37.627-9.508,47.792a42.734,42.734,0,0,0,40.5,0c-5.145-10.165-9.526-27.654-9.5-47.792.025-23.9,6.278-43.991,12.6-52.419l.309-.408-.217-.408A57.855,57.855,0,0,0,83.955,48.8" transform="translate(-26.998 -21.872)" fill="#c1001b"/>
    <path id="Path_12016" data-name="Path 12016" d="M104.727,132.576H97.059L94.65,125.21a.445.445,0,0,0-.422-.3h-.09a.439.439,0,0,0-.42.3l-2.409,7.366H83.625a.437.437,0,0,0-.433.441v.1a.442.442,0,0,0,.184.357l6.2,4.492-2.439,7.416a.469.469,0,0,0,.06.351.525.525,0,0,0,.294.231.4.4,0,0,0,.134.021.4.4,0,0,0,.253-.084l6.3-4.569,6.3,4.569a.6.6,0,0,0,.463.043.457.457,0,0,0,.259-.221.5.5,0,0,0,.016-.341l-2.428-7.416,6.2-4.492a.436.436,0,0,0,.182-.357v-.1a.441.441,0,0,0-.447-.441" transform="translate(-37.29 -55.991)" fill="#ffba00"/>
    <path id="Path_12017" data-name="Path 12017" d="M57.838,132.576H50.153l-2.415-7.366a.443.443,0,0,0-.415-.3h-.09a.436.436,0,0,0-.417.3l-2.409,7.366H36.733a.438.438,0,0,0-.44.441v.1a.44.44,0,0,0,.182.357l6.2,4.492-2.432,7.416a.514.514,0,0,0,.344.583.4.4,0,0,0,.136.021.443.443,0,0,0,.258-.084l6.3-4.569,6.292,4.569a.614.614,0,0,0,.468.043.45.45,0,0,0,.282-.562l-2.44-7.416,6.2-4.492a.441.441,0,0,0,.182-.357v-.1a.437.437,0,0,0-.431-.441" transform="translate(-16.268 -55.991)" fill="#c1001b"/>
    <path id="Path_12018" data-name="Path 12018" d="M130.512,132.576h7.682l2.412-7.366a.423.423,0,0,1,.41-.3h.092a.444.444,0,0,1,.421.3l2.418,7.366h7.672a.438.438,0,0,1,.439.441v.1a.438.438,0,0,1-.18.357l-6.2,4.492,2.429,7.416a.483.483,0,0,1-.058.351.52.52,0,0,1-.293.231.358.358,0,0,1-.13.021.458.458,0,0,1-.259-.084l-6.3-4.569-6.287,4.569a.608.608,0,0,1-.464.043.447.447,0,0,1-.26-.221.462.462,0,0,1-.026-.341l2.439-7.416-6.207-4.492a.43.43,0,0,1-.182-.357v-.1a.438.438,0,0,1,.436-.441" transform="translate(-58.305 -55.991)" fill="#c1001b"/>
  </g>
</svg>
