<svg id="Group_18520" data-name="Group 18520" xmlns="http://www.w3.org/2000/svg" xmlns:xlink="http://www.w3.org/1999/xlink" width="105.393" height="151.263" viewBox="0 0 105.393 151.263">
  <defs>
    <clipPath id="clip-path">
      <rect id="Rectangle_991" data-name="Rectangle 991" width="105.393" height="151.263" fill="none"/>
    </clipPath>
  </defs>
  <g id="Group_18519" data-name="Group 18519" clip-path="url(#clip-path)">
    <path id="Path_12263" data-name="Path 12263" d="M0,0V92.487c0,21.587,7.528,34.027,52.7,58.776,45.169-24.749,52.7-37.189,52.7-58.776V0Z" fill="#000a6e"/>
    <path id="Path_12264" data-name="Path 12264" d="M315.8,328.875l15.742-11.438V312.4l-19.211,13.957Z" transform="translate(-237.862 -237.911)" fill="red"/>
    <path id="Path_12265" data-name="Path 12265" d="M246.542,298.778c4.279-2.453,8.04-4.748,11.359-6.929v-41.44L281.439,233.3v-5.039l-27,19.624-4.427-3.217,31.43-22.835V216.8l-34.9,25.355Z" transform="translate(-187.757 -165.104)" fill="red"/>
    <path id="Path_12266" data-name="Path 12266" d="M252.774,179.691l-39.212,28.489,3.468,2.52,39.293-28.548v-2.46Z" transform="translate(-162.641 -136.846)" fill="red"/>
    <path id="Path_12267" data-name="Path 12267" d="M184.106,205l34.829-25.3H212l-31.361,22.785Z" transform="translate(-137.567 -136.846)" fill="red"/>
    <path id="Path_12268" data-name="Path 12268" d="M103.067,179.691H96.131L72.62,196.772l-4.382-3.184,19.129-13.9H80.431L64.77,191.069l-4.382-3.184,11.279-8.194H64.73l-7.811,5.675-4.382-3.184,3.428-2.491H49.109v34.2l23.528-17.1,3.452,2.508Z" transform="translate(-37.4 -136.846)" fill="red"/>
    <path id="Path_12269" data-name="Path 12269" d="M63.989,418.194V394.858L53.732,402.31c1.408,5.486,4.406,10.478,10.257,15.884" transform="translate(-40.92 -300.71)" fill="red"/>
    <path id="Path_12270" data-name="Path 12270" d="M147.826,372.834c3.319,2.181,7.08,4.476,11.359,6.929V323.136l-11.359,8.253Z" transform="translate(-112.579 -246.089)" fill="red"/>
    <path id="Path_12271" data-name="Path 12271" d="M345.262,391.838c5.851-5.406,8.849-10.4,10.257-15.884a32.375,32.375,0,0,0,.756-4.048l-3.164,2.3-4.38-3.182,7.89-5.732v-5.04L345.262,368.5Z" transform="translate(-262.939 -274.353)" fill="red"/>
    <path id="Path_12272" data-name="Path 12272" d="M55.25,38.246h6.472V36.4H55.25V32.65h7.681l.593-1.849H53.079V43.1H55.25Z" transform="translate(-40.423 -23.458)" fill="#fff"/>
    <path id="Path_12273" data-name="Path 12273" d="M347.734,42.311c-4.084,0-6.859-2.662-6.859-6.474,0-4.472,3.53-6.474,6.859-6.474a6.622,6.622,0,0,1,5.666,2.854l-1.906,1.032a4.434,4.434,0,0,0-3.76-1.926,4.235,4.235,0,0,0-4.592,4.514,4.342,4.342,0,0,0,4.592,4.515,4.417,4.417,0,0,0,3.747-1.907l1.906,1.032a6.628,6.628,0,0,1-5.652,2.835" transform="translate(-259.598 -22.362)" fill="#fff"/>
    <path id="Path_12274" data-name="Path 12274" d="M123.055,102.554c-3.258,0-6.743,2-6.743,6.475a6.748,6.748,0,1,0,6.743-6.475m0,10.986a4.35,4.35,0,0,1-4.464-4.511,4.257,4.257,0,0,1,4.464-4.511,4.511,4.511,0,0,1,0,9.022" transform="translate(-88.579 -78.101)" fill="#fff"/>
    <path id="Path_12275" data-name="Path 12275" d="M344.961,102.557c-3.258,0-6.743,2-6.743,6.475a6.748,6.748,0,1,0,6.743-6.475m0,10.986a4.35,4.35,0,0,1-4.464-4.511,4.257,4.257,0,0,1,4.464-4.511,4.511,4.511,0,0,1,0,9.022" transform="translate(-257.575 -78.104)" fill="#fff"/>
    <path id="Path_12276" data-name="Path 12276" d="M46.476,105.865h4.858v10.441h2.229V105.865h4.6l.6-1.849H46.476Z" transform="translate(-35.394 -79.215)" fill="#fff"/>
    <path id="Path_12277" data-name="Path 12277" d="M210.636,116.194h2.714l-6.1-7.183,5.253-5.142h-2.738l-5.575,5.457V103.87h-2.071v12.325h2.071v-4.188l1.578-1.545Z" transform="translate(-153.925 -79.103)" fill="#fff"/>
    <path id="Path_12278" data-name="Path 12278" d="M277.912,103.8h-2.426l-3.974,5.419-3.974-5.419h-2.586l5.422,7.393v4.932H272.6v-5.077Z" transform="translate(-201.778 -79.047)" fill="#fff"/>
  </g>
</svg>
