<svg id="Group_18482" data-name="Group 18482" xmlns="http://www.w3.org/2000/svg" xmlns:xlink="http://www.w3.org/1999/xlink" width="134.406" height="162.498" viewBox="0 0 134.406 162.498">
  <defs>
    <clipPath id="clip-path">
      <rect id="Rectangle_961" data-name="Rectangle 961" width="134.406" height="162.498" fill="none"/>
    </clipPath>
  </defs>
  <g id="Group_18481" data-name="Group 18481" clip-path="url(#clip-path)">
    <path id="Path_12116" data-name="Path 12116" d="M67.928,162.048a95.025,95.025,0,0,0,42.02-30c8.447-10.676,14.777-23.558,18.817-38.287,7.069-25.778,5.2-51.293,4.54-60.5a176.046,176.046,0,0,0-3.566-23.31C109.867,4.12,89.67,1.816,67.928,1.816S25.989,4.12,6.117,9.954a176.047,176.047,0,0,0-3.566,23.31c-.661,9.208-2.53,34.722,4.54,60.5,4.039,14.728,10.37,27.61,18.817,38.287a95.025,95.025,0,0,0,42.02,30" transform="translate(-0.725 -0.72)" fill="#fff"/>
    <path id="Path_12117" data-name="Path 12117" d="M67.2,1.1c21.742,0,41.939,2.3,61.811,8.138a176.017,176.017,0,0,1,3.566,23.31c.661,9.208,2.53,34.722-4.54,60.5-4.039,14.728-10.37,27.61-18.817,38.287a95.025,95.025,0,0,1-42.02,30,95.025,95.025,0,0,1-42.02-30c-8.447-10.676-14.777-23.558-18.817-38.287-7.069-25.778-5.2-51.293-4.54-60.5A176.017,176.017,0,0,1,5.392,9.234C25.264,3.4,45.461,1.1,67.2,1.1m0-1.1C43.84,0,24.1,2.6,5.083,8.182l-.609.179-.148.617A178,178,0,0,0,.733,32.466l-.008.11c-.686,9.546-2.507,34.9,4.584,60.758,4.079,14.872,10.475,27.885,19.014,38.678a96.752,96.752,0,0,0,42.5,30.345l.381.141.381-.141a96.752,96.752,0,0,0,42.5-30.345c8.538-10.793,14.935-23.806,19.014-38.678,7.091-25.857,5.27-51.213,4.584-60.759l-.008-.109A178.1,178.1,0,0,0,130.08,8.978l-.148-.617-.609-.179C110.305,2.6,90.566,0,67.2,0" transform="translate(0)" fill="#c9c9ca"/>
    <path id="Path_12118" data-name="Path 12118" d="M90.126,9.866l-.119,5.451c.889-.042,1.334-.06,2.224-.094l.1-5.451c-.881.034-1.322.053-2.2.094" transform="translate(-35.694 -3.875)" fill="#00267f"/>
    <path id="Path_12119" data-name="Path 12119" d="M141.613,12.963c.761-.914,1.165-1.4,1.941-2.332-.993-.083-1.489-.122-2.481-.2-.824,1.087-1.3,1.713-2.03,2.674l-.078-2.821c-.876-.058-1.314-.085-2.191-.136l.149,5.451c.885.051,1.328.078,2.213.136l-.024-1.167.736-.958c.484.8.815,1.341,1.381,2.269,1.023.075,1.536.115,2.559.2-.881-1.262-1.35-1.935-2.174-3.122" transform="translate(-54.24 -4.026)" fill="#00267f"/>
    <path id="Path_12120" data-name="Path 12120" d="M80.181,10.264l-.066,2.26c-.8.049-1.4.089-2.186.145L78,10.409c-.9.063-1.344.1-2.241.168l-.2,5.453c.905-.071,1.357-.1,2.263-.168l.074-2.255c.783-.056,1.385-.1,2.19-.145l-.066,2.254c.9-.056,1.356-.082,2.26-.131l.138-5.451c-.9.048-1.343.074-2.239.13" transform="translate(-29.965 -4.019)" fill="#00267f"/>
    <path id="Path_12121" data-name="Path 12121" d="M99.467,13.968c1.145-1.44,1.776-2.234,2.96-3.73l.037-.769c-1.723.019-2.777.036-4.209.077-.077,0-.739.019-1.281.038-.006.4-.008.6-.014,1,1.1-.034,1.873-.056,2.709-.073-1.083,1.416-1.689,2.209-2.842,3.708l-.012.82L97.894,15h0c1.384-.038,2.259-.059,3.377-.073l.211,0,.369,0,.726-.008c0-.4,0-.6,0-1-1.273.013-2.117.025-3.114.048" transform="translate(-38.395 -3.755)" fill="#00267f"/>
    <path id="Path_12122" data-name="Path 12122" d="M152.426,15.505c.792.075,1.435.14,2.23.224l.407,1.4c.9.1,1.349.144,2.247.247-.757-2.255-1.132-3.382-1.876-5.632l-.08-.009c-1.618-.176-2.427-.257-4.047-.408h0l-.106-.01c-.528,2.123-.795,3.186-1.334,5.313.924.08,1.385.121,2.309.209.094-.505.174-.936.249-1.34m.176-.952c.116-.631.234-1.271.384-2.093l.751.075c.247.862.44,1.533.631,2.2-.617-.065-1.151-.118-1.766-.177" transform="translate(-59.434 -4.49)" fill="#00267f"/>
    <path id="Path_12123" data-name="Path 12123" d="M115.665,9.5c-.9-.018-1.348-.025-2.247-.036l.026,4.528c-.793-.01-1.294-.014-2.084-.017l-.009-4.531c-.9,0-1.344,0-2.241,0L109.1,13.7c.03,1.329,2.034,1.332,3.307,1.343s3.277.042,3.3-1.287Z" transform="translate(-43.267 -3.744)" fill="#00267f"/>
    <path id="Path_12124" data-name="Path 12124" d="M129.635,10.927c-.048-1.33-2.048-1.432-3.309-1.481s-3.26-.1-3.259,1.226l.039,3.084c.033,1.33,2.053,1.392,3.327,1.441s3.293.144,3.277-1.185ZM125.375,14.1l-.064-3.626c.784.027,1.285.046,2.069.08l.077,3.627c-.79-.034-1.291-.054-2.081-.081" transform="translate(-48.805 -3.739)" fill="#00267f"/>
    <path id="Path_12125" data-name="Path 12125" d="M68.225,13.531c-.65-.151-2.641-.551-2.641-.551l.024-.514c1.425-.141,2.137-.206,3.563-.328l.04-1s-2.257.2-2.858.26a3.863,3.863,0,0,0-2.171.569,1.74,1.74,0,0,0-.656,1.324,1.153,1.153,0,0,0,.921,1.3c1.164.262,2.866.649,2.866.649l-.022.5c-1.534.141-2.3.216-3.834.378l-.051,1.013,2.811-.282a6.069,6.069,0,0,0,2.341-.472,1.615,1.615,0,0,0,.828-1.535c.03-.746-.434-1.13-1.162-1.3" transform="translate(-25.145 -4.415)" fill="#00267f"/>
    <path id="Path_12126" data-name="Path 12126" d="M57.651,24.683l-.582,10.248c1.674-.2,2.51-.291,4.185-.463l.508-10.246c-1.646.172-2.467.264-4.111.461" transform="translate(-22.632 -9.606)" fill="#00267f"/>
    <path id="Path_12127" data-name="Path 12127" d="M75.585,25.945l-.2,5.867c-1.163.388-1.773.594-2.918.987l.255-6.636c-1.618.131-2.427.2-4.044.358l-.275,6.06a1.749,1.749,0,0,0,.812,1.74,4.041,4.041,0,0,0,2.5.4,5.256,5.256,0,0,0,1.941-.622c.777-.416,1.685-1.045,1.685-1.045.157.466.237.7.395,1.166,1.468-.1,2.2-.146,3.67-.227l.219-8.3c-1.618.091-2.428.141-4.046.256" transform="translate(-27.127 -10.188)" fill="#00267f"/>
    <path id="Path_12128" data-name="Path 12128" d="M42.169,31.172a5.393,5.393,0,0,0-1.565-.159A4.97,4.97,0,0,0,42.92,29.83c1.288-1.28,1.049-3.39-.617-3.639a8.673,8.673,0,0,0-2.474.058v0c-1.524.218-2.286.331-3.809.571-.8.126-1.555.244-2.141.34-1.962.32-2.941.494-4.9.854,1.477.379,2.384.617,3.618.95l-.552,6.886c-1.209.773-2.172,1.4-3.687,2.383,1.452-.262,2.378-.422,3.544-.616.277-.046,4.911-.781,5.6-.882l1.629-.234a6.985,6.985,0,0,0,3.291-1.025c1.611-1.135,1.692-3.827-.255-4.3m-3.147,3.587c-1.165.165-1.938.279-3,.442l.21-2.846c1.165-.179,1.832-.278,2.985-.442Zm.3-4.343c-1.15.164-1.815.262-2.977.442l.187-2.565c1.062-.165,1.815-.277,2.965-.441Z" transform="translate(-11.246 -10.36)" fill="#00267f"/>
    <path id="Path_12129" data-name="Path 12129" d="M96.445,29.545c.629-.018,1.247-.031,2.086-.048v-.005c1.011-.02,2.029-.031,3.377-.042l.007-2.12a1.942,1.942,0,0,0-1.251-1.959,10.63,10.63,0,0,0-4.236-.511,11.009,11.009,0,0,0-4.251.751,2.121,2.121,0,0,0-1.285,2.029l-.063,3.537a1.809,1.809,0,0,0,1.212,1.91,11.658,11.658,0,0,0,4.29.445,12.065,12.065,0,0,0,4.307-.685,1.992,1.992,0,0,0,1.265-1.985v-.415c-1.671.013-2.507.027-4.179.065l-.016,1.539c-1.037.023-1.683.041-2.744.077L95,29.59l1.44-.045m-1.407-3.2c1.045-.035,1.661-.052,2.717-.077l-.019,1.872c-.965.021-1.685.042-2.726.077Z" transform="translate(-36.02 -9.855)" fill="#00267f"/>
    <path id="Path_12130" data-name="Path 12130" d="M147.089,32.092c-1.581-.149-2.371-.218-3.953-.345l.06,1.54c-1.06-.085-1.645-.129-2.629-.2l-.086-2.537c.591.042,1.111.078,1.6.115.7.052,1.387.11,2.317.189v0c.786.068,1.615.144,2.648.242l-.1-2.122a2.33,2.33,0,0,0-1.282-2.084,10.439,10.439,0,0,0-4.048-.934,9.392,9.392,0,0,0-4.007.322,1.782,1.782,0,0,0-1.127,1.9l.111,3.538a2.174,2.174,0,0,0,1.247,2.037,11.329,11.329,0,0,0,4.1.876A10.274,10.274,0,0,0,146,34.37a1.679,1.679,0,0,0,1.1-1.863Zm-6.719-4.785c1,.071,1.608.116,2.6.2l.072,1.872c-.885-.072-1.62-.127-2.611-.2Z" transform="translate(-54.125 -10.27)" fill="#00267f"/>
    <path id="Path_12131" data-name="Path 12131" d="M122.5,27.535l-.06,0v0a3.646,3.646,0,0,0,2.647-.9,2.892,2.892,0,0,0-.048-3.554c-.95-.893-2.186-1.07-3.8-1.128l-1.067-.038c-2.318-.077-3.762-.1-6.343-.126l.034,10.237c1.694.014,2.541.027,4.235.067l-.04-3.785c1.218.028,2.023.051,3.245.1l.062,3.785c1.722.06,2.583.1,4.3.183-.025-1.074-.038-1.611-.064-2.685-.024-1.011-.862-2.054-3.105-2.142m-4.458-.807-.036-3.311c1.215.027,2,.05,3.217.094l.054,3.312c-1.218-.044-2.02-.068-3.235-.095" transform="translate(-45.143 -8.637)" fill="#00267f"/>
    <path id="Path_12132" data-name="Path 12132" d="M162.951,27.991c-.529,2.225-.8,3.339-1.339,5.567-.847-2.393-1.266-3.589-2.1-5.976-1.533-.173-2.3-.253-3.832-.4,1.376,3.442,2.075,5.167,3.487,8.623,1.938.211,2.907.325,4.844.569,1.037-3.167,1.547-4.747,2.549-7.9-1.445-.2-2.166-.3-3.612-.477" transform="translate(-61.739 -10.778)" fill="#00267f"/>
    <path id="Path_12133" data-name="Path 12133" d="M182.236,34.446c-1.439-.588-3.884-1.532-3.884-1.532l-.1-1.382c.842.13,1.378.216,2.259.361l.119,1.516c1.915-.78,2.866-1.16,4.76-1.905,0,0-3.363-.932-6.22-1.388-3.9-.623-4.951.208-4.847,1.742.1,1.508,1.489,2.227,3.007,2.8,1.493.566,3.506,1.375,3.506,1.375l.122,1.565c-.828-.136-1.442-.234-2.28-.362l-.129-1.721c-2.447.818-3.678,1.242-6.156,2.117,0,0,3.975.818,7.688,1.408,3.958.629,4.834-.132,4.68-1.938-.107-1.259-1.117-2.083-2.522-2.657" transform="translate(-68.365 -11.861)" fill="#00267f"/>
    <path id="Path_12134" data-name="Path 12134" d="M71.761,111.5H11.493a146.087,146.087,0,0,0,3.594,21.439H71.761Z" transform="translate(-4.558 -44.216)" fill="#3295cf"/>
    <path id="Path_12135" data-name="Path 12135" d="M76.542,167.1H23.55a100.252,100.252,0,0,0,10.713,21.439H76.542Z" transform="translate(-9.339 -66.269)" fill="#3295cf"/>
    <path id="Path_12136" data-name="Path 12136" d="M57.408,222.714A90.059,90.059,0,0,0,89.97,244.152V222.714Z" transform="translate(-22.766 -88.322)" fill="#3295cf"/>
    <path id="Path_12137" data-name="Path 12137" d="M133.394,222.714a18.736,18.736,0,0,1-22.025,0v21.437a91.006,91.006,0,0,0,29.447-18.361,13.9,13.9,0,0,1-7.422-3.076" transform="translate(-44.166 -88.322)" fill="#00267f"/>
    <path id="Path_12138" data-name="Path 12138" d="M159.729,129.376C174.762,99,172.648,64.558,171.774,52.457c-15.716-5.046-38.175-7.891-60.405-7.872V84.96h17.944c.706,10.772,7.644,36.543,30.416,44.415" transform="translate(-44.166 -17.681)" fill="#3295cf"/>
    <path id="Path_12139" data-name="Path 12139" d="M119.625,56.963l-2.233-7.309-4.056,5.584,2.233,7.309,7.641-.135,4.056-5.583Z" transform="translate(-44.946 -19.691)" fill="#c40012"/>
    <path id="Path_12140" data-name="Path 12140" d="M96.191,49.654l-2.233,7.309-7.641-.135,4.056,5.583,7.641.135,2.233-7.309Z" transform="translate(-34.231 -19.691)" fill="#c40012"/>
    <path id="Path_12141" data-name="Path 12141" d="M132.646,75.8l-6.563-2.133-6.261,4.382,2.49,7.225,6.563,2.133-2.49-7.225Z" transform="translate(-47.518 -29.216)" fill="#c40012"/>
    <path id="Path_12142" data-name="Path 12142" d="M88.226,73.67,81.663,75.8l6.261,4.382-2.49,7.225L92,85.278l2.49-7.225Z" transform="translate(-32.385 -29.216)" fill="#c40012"/>
    <path id="Path_12143" data-name="Path 12143" d="M107.358,87.068l-6.1,4.6v6.9l6.1-4.6,6.1,4.6v-6.9Z" transform="translate(-40.155 -34.529)" fill="#c40012"/>
    <path id="Path_12144" data-name="Path 12144" d="M133.394,172.53a17.694,17.694,0,0,0,12.07,4.437,91.081,91.081,0,0,0,14.27-21.055c-22.776-7.869-29.716-33.644-30.421-44.417H111.369V172.53a18.736,18.736,0,0,0,22.025,0" transform="translate(-44.166 -44.216)" fill="#00267f"/>
  </g>
</svg>
