<svg xmlns="http://www.w3.org/2000/svg" xmlns:xlink="http://www.w3.org/1999/xlink" width="141.499" height="141.499" viewBox="0 0 141.499 141.499">
  <defs>
    <clipPath id="clip-path">
      <rect id="Rectangle_984" data-name="Rectangle 984" width="141.499" height="141.499" fill="none"/>
    </clipPath>
    <clipPath id="clip-path-2">
      <path id="Path_12212" data-name="Path 12212" d="M18.467,63.527A45.057,45.057,0,1,0,63.523,18.471,45.06,45.06,0,0,0,18.467,63.527" transform="translate(-18.467 -18.471)" fill="none"/>
    </clipPath>
    <linearGradient id="linear-gradient" x1="-0.285" y1="1.285" x2="-0.27" y2="1.285" gradientUnits="objectBoundingBox">
      <stop offset="0" stop-color="#f38200"/>
      <stop offset="0.436" stop-color="#f38200"/>
      <stop offset="0.465" stop-color="#f59300"/>
      <stop offset="0.512" stop-color="#f9a900"/>
      <stop offset="0.567" stop-color="#fbba00"/>
      <stop offset="0.636" stop-color="#fdc600"/>
      <stop offset="0.732" stop-color="#fecd00"/>
      <stop offset="1" stop-color="#ffcf00"/>
    </linearGradient>
  </defs>
  <g id="Group_18512" data-name="Group 18512" transform="translate(0 0)">
    <g id="Group_18507" data-name="Group 18507" transform="translate(0 0)">
      <g id="Group_18506" data-name="Group 18506" clip-path="url(#clip-path)">
        <path id="Path_12210" data-name="Path 12210" d="M141.5,70.75A70.75,70.75,0,1,1,70.75,0,70.747,70.747,0,0,1,141.5,70.75" transform="translate(0 0)" fill="#dc000c"/>
        <path id="Path_12211" data-name="Path 12211" d="M139.338,70.274A69.063,69.063,0,1,1,70.275,1.215a69.062,69.062,0,0,1,69.063,69.059" transform="translate(0.475 0.475)" fill="#1a1311"/>
      </g>
    </g>
    <g id="Group_18509" data-name="Group 18509" transform="translate(25.693 25.699)">
      <g id="Group_18508" data-name="Group 18508" clip-path="url(#clip-path-2)">
        <rect id="Rectangle_985" data-name="Rectangle 985" width="90.114" height="90.111" transform="translate(0 0)" fill="url(#linear-gradient)"/>
      </g>
    </g>
    <g id="Group_18511" data-name="Group 18511" transform="translate(0 0)">
      <g id="Group_18510" data-name="Group 18510" clip-path="url(#clip-path)">
        <path id="Path_12213" data-name="Path 12213" d="M63.755,109.638a45.879,45.879,0,1,1,45.881-45.879,45.932,45.932,0,0,1-45.881,45.879m0-90.11a44.231,44.231,0,1,0,44.233,44.231A44.281,44.281,0,0,0,63.755,19.528" transform="translate(6.994 6.996)" fill="#fff"/>
        <path id="Path_12214" data-name="Path 12214" d="M43.926,31.739c1.2,2.68,4.045,4.629,4.921,5.262.707.506.339.877-.374.717s-3.087-.145-3.087,1.165" transform="translate(17.189 12.42)" fill="#dc000c"/>
        <path id="Path_12215" data-name="Path 12215" d="M47.506,38.034A57.164,57.164,0,0,0,25.245,48.8c6.272-3.535,14.98-5.653,23.2-6.712-.3-1.341-.618-2.714-.935-4.054" transform="translate(9.879 14.883)" fill="#dc000c"/>
        <path id="Path_12216" data-name="Path 12216" d="M50.421,32.837l-1.273-6.193,1.273-6.19,1.276,6.19Z" transform="translate(19.232 8.004)" fill="#dc000c"/>
        <path id="Path_12217" data-name="Path 12217" d="M49.4,38.75l-1.27-6.189,1.27-6.187,1.274,6.187Z" transform="translate(18.835 10.32)" fill="#dc000c"/>
        <path id="Path_12218" data-name="Path 12218" d="M51.439,38.75l-1.273-6.189,1.273-6.187,1.273,6.187Z" transform="translate(19.631 10.32)" fill="#dc000c"/>
        <path id="Path_12219" data-name="Path 12219" d="M62.456,28.673c.769-.8,1.572-1.6,2.419-2.411a32.719,32.719,0,0,0-2.419,2.411" transform="translate(24.44 10.277)" fill="#dc000c"/>
        <path id="Path_12220" data-name="Path 12220" d="M38.811,28.88c-.746-.819-1.529-1.635-2.355-2.468,5.194,8.486,7.028,15.09,5.873,25.145a28.855,28.855,0,0,1-.523,3.044,27.028,27.028,0,0,0,5.323-1.579c2.7-11.228,1.891-19.121-3.464-24.63-1.8-1.841-3.719-1.117-4.608-1.216A3.663,3.663,0,0,1,36.919,26.1c-.718-.616-.808-.178-.463.313a33.637,33.637,0,0,1,2.355,2.468" transform="translate(14.19 10.095)" fill="#dc000c"/>
        <path id="Path_12221" data-name="Path 12221" d="M52.517,40.654c0-.392,0-.786,0-1.174,0-.707,0-1.387-.008-2.052-1.636,0-3.1.058-3.819.1-.006.639-.006,1.284-.006,1.956v1.269c.767-.04,2.2-.1,3.83-.095" transform="translate(19.052 14.646)" fill="#dc000c"/>
        <path id="Path_12222" data-name="Path 12222" d="M51.61,37.644l-1.217-5.9L49.22,37.708c.679-.026,1.369-.057,2.39-.064" transform="translate(19.26 12.42)" fill="#dc000c"/>
        <path id="Path_12223" data-name="Path 12223" d="M61.244,46.839a42.9,42.9,0,0,1-.038-8.359c-2.035-.426-4.569-.771-6.073-.974a52.184,52.184,0,0,0,1.741,12.872v0c2.3,9.852,11.516,19.936,20.188,24.338-7.933-6-14.907-17.716-15.818-27.874" transform="translate(21.573 14.677)" fill="#dc000c"/>
        <path id="Path_12224" data-name="Path 12224" d="M64.912,38.152A57.376,57.376,0,0,0,52.9,36.873a53.5,53.5,0,0,0-6.7.413,36.317,36.317,0,0,1-.255,4.686c2.488-.182,4.79-.273,6.95-.273a99.272,99.272,0,0,1,11.733.74,24.118,24.118,0,0,1,.278-4.288" transform="translate(17.981 14.429)" fill="#dc000c"/>
        <path id="Path_12225" data-name="Path 12225" d="M68.366,26.108A3.648,3.648,0,0,1,66.2,27.133c-.886.078-2.792-.7-4.632,1.1a16.641,16.641,0,0,0-3.9,5.838l.006-.021c-1.2,2.68-4.043,4.629-4.921,5.262-.708.508-.342.878.376.718a4.472,4.472,0,0,1,2.39.232,64.475,64.475,0,0,1,7.047,1.059c.839-5.124,2.877-9.661,6.261-14.89-.849.808-1.651,1.611-2.421,2.411a32.559,32.559,0,0,1,2.421-2.411c.353-.483.274-.925-.458-.328" transform="translate(20.493 10.104)" fill="#dc000c"/>
        <path id="Path_12226" data-name="Path 12226" d="M60.554,37.992a24.4,24.4,0,0,0-.351,4.157c8.118,1.071,16.68,3.176,22.873,6.667A57.145,57.145,0,0,0,60.554,37.992" transform="translate(23.558 14.867)" fill="#dc000c"/>
        <path id="Path_12227" data-name="Path 12227" d="M48.7,41.271c.189,18.55,1.9,43.291,1.9,43.291s1.713-24.8,1.9-43.36a37.718,37.718,0,0,0-3.8.07" transform="translate(19.057 16.114)" fill="#dc000c"/>
        <path id="Path_12228" data-name="Path 12228" d="M49.673,46.582a36.793,36.793,0,0,1-5.33,1.44C41.9,56.869,35.635,65.959,28.756,70.9,37.541,66.713,47,56.858,49.544,47.066v0c.046-.164.088-.328.129-.488" transform="translate(11.253 18.228)" fill="#dc000c"/>
        <path id="Path_12229" data-name="Path 12229" d="M4.43,44.277l3.772.142-.047,1.269,7.545.282.047-1.27,3.773.142-.356,9.525-2.61,2.446L6.493,56.437,4.074,53.8ZM8.013,49.5l-.12,3.175,7.545.282.12-3.175Z" transform="translate(1.594 17.326)" fill="#fff"/>
        <path id="Path_12230" data-name="Path 12230" d="M20.153,59.887l-3.73.582-.2-1.255L8.768,60.377l.195,1.256-3.729.582-.979-6.279,3.73-.582.195,1.255,7.46-1.163-.195-1.255,3.73-.583Z" transform="translate(1.665 20.977)" fill="#fff"/>
        <path id="Path_12231" data-name="Path 12231" d="M10.926,67.405l-.772-2.315-3.775.616L4.948,61.416l3.581-1.2.4,1.2,11.314-1.871,2.076,6.221-10.172,5.3.4,1.206L8.97,73.47,7.539,69.179Zm2.246-2.812.466,1.4L17.7,63.859Z" transform="translate(1.936 23.304)" fill="#fff"/>
        <path id="Path_12232" data-name="Path 12232" d="M16.535,74.311,11.149,77.8,8.384,73.535l3.168-2.054.691,1.067,6.336-4.106-.691-1.067,3.168-2.052,2.35,3.627-3.124,5.96L27,74.5l2.35,3.626-3.167,2.054-.693-1.066-6.335,4.106.69,1.066-3.167,2.055-2.766-4.267L19.3,78.579l-5.184.33Z" transform="translate(3.281 25.562)" fill="#fff"/>
        <path id="Path_12233" data-name="Path 12233" d="M21.955,90.77l-4.249-3.829-.2-3.572,6.738-7.478,3.573-.168,4.249,3.829.2,3.57L25.529,90.6Zm1.583-3.656,5.053-5.608-2.36-2.127-5.055,5.61Z" transform="translate(6.849 29.631)" fill="#fff"/>
        <path id="Path_12234" data-name="Path 12234" d="M38.322,83.7l4.493,2.379-1.767,3.336-1.123-.6-3.535,6.673,1.124.594-1.767,3.336L31.927,97.4,32,90.2l-2.993,5.649-4.493-2.379,1.768-3.336,1.123.6,3.534-6.673-1.123-.6,1.767-3.335L35.4,82.148l-.06,7.174Z" transform="translate(9.593 31.354)" fill="#fff"/>
        <path id="Path_12235" data-name="Path 12235" d="M75.849,95.971l-4.48,2.182-3.093-1.291-4.408-9.05.888-3.233,4.48-2.182,3.094,1.293,4.408,9.049ZM73.2,93.062l-3.307-6.788L67.4,87.487l3.306,6.788Z" transform="translate(24.992 32.243)" fill="#fff"/>
        <path id="Path_12236" data-name="Path 12236" d="M82.053,87.137l-1.171-1.48L83.488,83.6,87,88.038,79.183,94.22l-2.342-2.961.87-.687-4.685-5.923-.868.687-2.342-2.961,4.342-3.435L76.5,81.9l-.868.686,4.685,5.923Z" transform="translate(27.32 30.89)" fill="#fff"/>
        <path id="Path_12237" data-name="Path 12237" d="M75.15,78.99l5.081-5.852,3.353-.022,3.8,3.3.449,3.322-2.177,2.509.949.825.726-.836,2.851,2.475-3.63,4.181L83.7,86.416l.726-.836-5.7-4.95L78,81.465Zm7.655.781L84.258,78.1l-1.9-1.65L80.9,78.121Z" transform="translate(29.407 28.611)" fill="#fff"/>
        <path id="Path_12238" data-name="Path 12238" d="M95.011,70.7l.519-.978,3.335,1.768-2.074,3.914-5-2.653-1.037,1.958,5,2.652-2.074,3.914-3.335-1.768.519-.979-6.671-3.535-.518.978L80.337,74.2l2.076-3.912,5,2.65,1.038-1.955-5-2.653,2.076-3.914,3.335,1.768-.52.978Z" transform="translate(31.437 25.209)" fill="#fff"/>
        <path id="Path_12239" data-name="Path 12239" d="M85.9,59.83l3.608,1.112L89.185,62,96.4,64.225l.327-1.059,3.606,1.112L98.7,69.57l-3.609-1.114.327-1.056-7.214-2.225-.327,1.056-3.608-1.11Z" transform="translate(32.977 23.412)" fill="#fff"/>
        <path id="Path_12240" data-name="Path 12240" d="M86.6,55.321l.449-4.4,3.755.381-.113,1.1,7.512.764.111-1.1,3.757.383-.381,3.744L95.04,58.407l6.36.648-.448,4.4-3.757-.381.113-1.1L89.8,61.214l-.111,1.1-3.755-.383.38-3.745,6.627-2.219Z" transform="translate(33.625 19.924)" fill="#fff"/>
        <path id="Path_12241" data-name="Path 12241" d="M98.507,43.007l2.751,1.917.772,6.823-5,.566-.374-3.3,1.251-.142-.275-2.421-2.25.256.648,5.721-6.5.737-2.749-1.917L86,44.424l5-.566.374,3.3-1.251.142L90.4,49.72l2.251-.255-.648-5.722Z" transform="translate(33.654 16.829)" fill="#fff"/>
        <path id="Path_12242" data-name="Path 12242" d="M27.964,12.746l3.855-2.453,1.839,2.893-.964.612,3.679,5.782.963-.612,1.841,2.891L35.9,23.944l-5.622-3.3,3.115,4.9L29.538,27.99,27.7,25.1l.964-.614L24.984,18.7l-.964.614-1.839-2.891,3.277-2.084,5.61,3.283Z" transform="translate(8.68 4.028)" fill="#fff"/>
        <path id="Path_12243" data-name="Path 12243" d="M41.578,16.984l-2.093.657.5,3.434-3.88,1.22-1.027-3.27,1.089-.344L34.638,8.388,40.26,6.621l4.63,9.322L45.98,15.6l1.027,3.27-3.879,1.219Zm-2.5-2.088,1.263-.4-1.864-3.723Z" transform="translate(13.554 2.591)" fill="#fff"/>
        <path id="Path_12244" data-name="Path 12244" d="M47.5,19l-2.413-2.15-.525-9.124,2.15-2.411,7.413-.427.294,5.131-3.421.2L50.9,8.5l-2.851.164.394,6.841,2.851-.164-.1-1.71-1.711.1-.145-2.509,5.131-.295.441,7.641Z" transform="translate(17.438 1.912)" fill="#fff"/>
        <path id="Path_12245" data-name="Path 12245" d="M60.759,19.7,55.7,18.8l-1.849-2.648,1.6-9L58.09,5.3l5.062.9L65,8.848l-1.6,9Zm-.529-3.573,1.2-6.749-2.813-.5-1.2,6.748Z" transform="translate(21.071 2.075)" fill="#fff"/>
        <path id="Path_12246" data-name="Path 12246" d="M69.116,16.283l-1.1,2.709,1.059.431L67.783,22.6,62.49,20.447l1.291-3.174,1.057.429,1.1-2.709-.533-4.458-1.482-.6,1.291-3.174L68.6,8.135l.455,3.736,2.931-2.36,3.386,1.376-1.29,3.174-1.482-.6Z" transform="translate(24.453 2.645)" fill="#fff"/>
        <path id="Path_12247" data-name="Path 12247" d="M75.877,22.689l-1.8-1.255-2.41,2.5L68.335,21.6l1.96-2.81.938.654,7.213-7.5,4.833,3.374-4.552,9.359.936.653L77.7,28.14l-3.335-2.328Zm.128-3.256,1.087.758L78.9,16.439Z" transform="translate(26.74 4.673)" fill="#fff"/>
        <path id="Path_12248" data-name="Path 12248" d="M94.239,39.67l-2.332-.27-.465-2.3-.977,2.134-2.332-.27,1.729,1.59-.977,2.133,2.044-1.153,1.728,1.589-.465-2.3Z" transform="translate(34.488 14.518)" fill="#fff"/>
        <path id="Path_12249" data-name="Path 12249" d="M85.051,20.944l-2.154.934-1.553-1.76.223,2.336-2.154.934,2.29.509.221,2.337,1.194-2.022,2.292.512-1.553-1.759Z" transform="translate(31.075 7.872)" fill="#fff"/>
        <path id="Path_12250" data-name="Path 12250" d="M89.215,26.639l-2.283.545-1.224-2-.186,2.34-2.282.544,2.166.9-.188,2.339,1.526-1.782,2.166.9-1.223-2Z" transform="translate(32.573 9.854)" fill="#fff"/>
        <path id="Path_12251" data-name="Path 12251" d="M92.31,32.945l-2.344.139L89.11,30.9l-.593,2.271-2.342.139,1.978,1.265-.591,2.271,1.813-1.49,1.978,1.266L90.5,34.435Z" transform="translate(33.722 12.091)" fill="#fff"/>
        <path id="Path_12252" data-name="Path 12252" d="M8.719,39.341l2.34-.171.562-2.279.886,2.173,2.34-.17-1.8,1.514.886,2.175-1.992-1.24-1.793,1.514.561-2.279Z" transform="translate(3.412 14.436)" fill="#fff"/>
        <path id="Path_12253" data-name="Path 12253" d="M18.684,21,20.8,22.027l1.626-1.693L22.1,22.659l2.113,1.024L21.9,24.1l-.321,2.325-1.107-2.07-2.31.416,1.625-1.692Z" transform="translate(7.109 7.957)" fill="#fff"/>
        <path id="Path_12254" data-name="Path 12254" d="M14.238,26.524l2.258.641L17.8,25.216l.088,2.344,2.258.64-2.2.811.089,2.343-1.45-1.845-2.2.81,1.306-1.949Z" transform="translate(5.572 9.867)" fill="#fff"/>
        <path id="Path_12255" data-name="Path 12255" d="M10.932,32.7l2.336.238.946-2.145.5,2.293,2.335.239L15.015,34.5l.494,2.294L13.76,35.231l-2.029,1.18.95-2.147Z" transform="translate(4.278 12.049)" fill="#fff"/>
        <path id="Path_12256" data-name="Path 12256" d="M69.195,86.153c.079-.461.142-.92.184-1.375a10.7,10.7,0,0,0-.629-5.032,7.482,7.482,0,0,0-2.97-3.558,10.214,10.214,0,0,0-5.6-1.344,22.7,22.7,0,0,0-7.158,1.063A20.378,20.378,0,0,0,47.538,78.6a14.553,14.553,0,0,0-3.58,3.514,7.212,7.212,0,0,0-1.409,3.556,3.615,3.615,0,0,0,1.042,2.863A5.5,5.5,0,0,0,47.3,89.9a13.286,13.286,0,0,1,.543-4.338,15.076,15.076,0,0,1,2.214-4.683,13.566,13.566,0,0,1,3.99-3.754,10.829,10.829,0,0,1,5.877-1.539,3.781,3.781,0,0,1,3.146,1.279,5.671,5.671,0,0,1,1.106,3.384,16.27,16.27,0,0,1-.629,4.793,33.275,33.275,0,0,1-2.019,5.487,42.24,42.24,0,0,1-3.057,5.466,33.454,33.454,0,0,1-3.773,4.771,19.985,19.985,0,0,1-4.166,3.385,8.165,8.165,0,0,1-4.186,1.279,6.144,6.144,0,0,1-3.8-1.041,4.1,4.1,0,0,1-1.625-2.733,7.132,7.132,0,0,1,.607-3.8,13.718,13.718,0,0,1,2.863-4.185,10.5,10.5,0,0,0-4.447.975,8.578,8.578,0,0,0-3.037,2.321,5.466,5.466,0,0,0-1.235,3.015A4.254,4.254,0,0,0,36.606,103a7.8,7.8,0,0,0,3.449,2.321,17.736,17.736,0,0,0,6.333.934,19.321,19.321,0,0,0,7.2-1.345,24.159,24.159,0,0,0,6.161-3.556,26.74,26.74,0,0,0,4.858-5.032,27.33,27.33,0,0,0,3.165-5.478A10.87,10.87,0,0,1,72.687,93.1c.23-3.1-1.567-5.4-3.492-6.948" transform="translate(13.954 29.287)" fill="#fff"/>
        <path id="Path_12257" data-name="Path 12257" d="M46.737,107.84a18.758,18.758,0,0,1-6.784-1.017A9.035,9.035,0,0,1,35.97,104.1a5.477,5.477,0,0,1-1.183-3.868,6.7,6.7,0,0,1,1.5-3.687,9.827,9.827,0,0,1,3.467-2.666,11.819,11.819,0,0,1,4.966-1.1,1.256,1.256,0,0,1,1.158.744,1.241,1.241,0,0,1-.241,1.355,12.543,12.543,0,0,0-2.611,3.8,5.977,5.977,0,0,0-.529,3.136,2.879,2.879,0,0,0,1.152,1.934,5,5,0,0,0,3.044.787,7,7,0,0,0,3.552-1.1,18.857,18.857,0,0,0,3.9-3.176,32.383,32.383,0,0,0,3.633-4.6,41.54,41.54,0,0,0,2.969-5.306A32.4,32.4,0,0,0,62.7,85.068a15.14,15.14,0,0,0,.589-4.423,4.5,4.5,0,0,0-.838-2.663,2.6,2.6,0,0,0-2.175-.811,9.667,9.667,0,0,0-5.217,1.35,12.4,12.4,0,0,0-3.631,3.412,13.9,13.9,0,0,0-2.035,4.3,12.118,12.118,0,0,0-.5,3.926,1.24,1.24,0,0,1-1.32,1.323,6.694,6.694,0,0,1-4.519-1.745,4.818,4.818,0,0,1-1.384-3.8,8.416,8.416,0,0,1,1.625-4.181,15.844,15.844,0,0,1,3.88-3.819,21.764,21.764,0,0,1,5.817-2.858,24.038,24.038,0,0,1,7.548-1.126A11.442,11.442,0,0,1,66.8,75.5a8.737,8.737,0,0,1,3.449,4.136,11.967,11.967,0,0,1,.712,5.61q-.033.374-.086.762a9.07,9.07,0,0,1,3.4,7.538,1.241,1.241,0,0,1-2.047.849,10.152,10.152,0,0,0-3.385-1.782A29.119,29.119,0,0,1,65.954,97.4a28,28,0,0,1-5.082,5.265,25.479,25.479,0,0,1-6.475,3.74,20.655,20.655,0,0,1-7.659,1.432M41.794,95.728a7.568,7.568,0,0,0-.959.384,7.4,7.4,0,0,0-2.606,1.977,4.216,4.216,0,0,0-.97,2.34,3.032,3.032,0,0,0,.68,2.162,6.655,6.655,0,0,0,2.916,1.92c.05.021.1.039.152.058a5.363,5.363,0,0,1-.961-2.381,8.37,8.37,0,0,1,.687-4.456,12.344,12.344,0,0,1,1.06-2M64.947,77.289a7.5,7.5,0,0,1,.817,3.253,17.606,17.606,0,0,1-.671,5.165A34.769,34.769,0,0,1,63,91.4a43.813,43.813,0,0,1-3.147,5.624,34.829,34.829,0,0,1-3.914,4.949,23.667,23.667,0,0,1-2.187,2.02,22.95,22.95,0,0,0,5.572-3.263,25.582,25.582,0,0,0,4.633-4.8,26.109,26.109,0,0,0,3.023-5.23,1.242,1.242,0,0,1,1.316-.739,10.6,10.6,0,0,1,3.179,1.027,8.2,8.2,0,0,0-2.71-3.52,1.24,1.24,0,0,1-.445-1.178c.075-.437.134-.865.171-1.276a9.549,9.549,0,0,0-.545-4.458,6.217,6.217,0,0,0-2.493-2.976,5.131,5.131,0,0,0-.508-.291M51.081,78.508a16.578,16.578,0,0,0-2.472,1.447,13.382,13.382,0,0,0-3.279,3.208A6.039,6.039,0,0,0,44.137,86.1a2.375,2.375,0,0,0,.7,1.921,3.188,3.188,0,0,0,1.585.8,16.812,16.812,0,0,1,.577-3.236,16.4,16.4,0,0,1,2.392-5.069,14.19,14.19,0,0,1,1.695-2.006" transform="translate(13.605 28.939)" fill="#fff"/>
        <path id="Path_12258" data-name="Path 12258" d="M59.679,76.5l-6.81.954L40.939,101.96l6.81-.954Z" transform="translate(16.02 29.934)" fill="#fff"/>
        <path id="Path_12259" data-name="Path 12259" d="M41.288,103.548a1.24,1.24,0,0,1-1.116-1.782L52.1,77.257a1.238,1.238,0,0,1,.943-.686l6.81-.954a1.241,1.241,0,0,1,1.287,1.771L49.214,101.9a1.24,1.24,0,0,1-.943.686l-6.81.954a1.455,1.455,0,0,1-.173.011M54.044,78.936,43.422,100.757l3.85-.54L57.893,78.4Z" transform="translate(15.671 29.585)" fill="#fff"/>
        <path id="Path_12260" data-name="Path 12260" d="M49.657,76.811a7.352,7.352,0,0,1,3.2-1.137,17.736,17.736,0,0,1,3,.31l-1.55.929-4.341.31Z" transform="translate(19.431 29.612)" fill="#fff"/>
        <path id="Path_12261" data-name="Path 12261" d="M69.195,86.153c.079-.461.142-.92.184-1.375a10.7,10.7,0,0,0-.629-5.032,7.482,7.482,0,0,0-2.97-3.558,10.214,10.214,0,0,0-5.6-1.344,22.7,22.7,0,0,0-7.158,1.063A20.378,20.378,0,0,0,47.538,78.6a14.553,14.553,0,0,0-3.58,3.514,7.212,7.212,0,0,0-1.409,3.556,3.615,3.615,0,0,0,1.042,2.863A5.5,5.5,0,0,0,47.3,89.9a13.286,13.286,0,0,1,.543-4.338,15.076,15.076,0,0,1,2.214-4.683,13.566,13.566,0,0,1,3.99-3.754,10.829,10.829,0,0,1,5.877-1.539,3.781,3.781,0,0,1,3.146,1.279,5.671,5.671,0,0,1,1.106,3.384,16.27,16.27,0,0,1-.629,4.793,33.275,33.275,0,0,1-2.019,5.487,42.24,42.24,0,0,1-3.057,5.466,33.454,33.454,0,0,1-3.773,4.771,19.985,19.985,0,0,1-4.166,3.385,8.165,8.165,0,0,1-4.186,1.279,6.144,6.144,0,0,1-3.8-1.041,4.1,4.1,0,0,1-1.625-2.733,7.132,7.132,0,0,1,.607-3.8,13.718,13.718,0,0,1,2.863-4.185,10.5,10.5,0,0,0-4.447.975,8.578,8.578,0,0,0-3.037,2.321,5.466,5.466,0,0,0-1.235,3.015A4.254,4.254,0,0,0,36.606,103a7.8,7.8,0,0,0,3.449,2.321,17.736,17.736,0,0,0,6.333.934,19.321,19.321,0,0,0,7.2-1.345,24.159,24.159,0,0,0,6.161-3.556,26.74,26.74,0,0,0,4.858-5.032,27.33,27.33,0,0,0,3.165-5.478A10.87,10.87,0,0,1,72.687,93.1c.23-3.1-1.567-5.4-3.492-6.948" transform="translate(13.954 29.287)" fill="#dc000c"/>
        <path id="Path_12262" data-name="Path 12262" d="M59.679,76.5l-6.81.954L40.939,101.96l6.81-.954Z" transform="translate(16.02 29.934)" fill="#dc000c"/>
      </g>
    </g>
  </g>
</svg>
